<svg xmlns="http://www.w3.org/2000/svg" viewBox="0 0 535 493.1"><defs><style>.cls-1{fill:#fff;}.cls-2{fill:#f9eded;}</style></defs><g id="Capa_2" data-name="Capa 2"><g id="Capa_1-2" data-name="Capa 1"><path class="cls-1" d="M184.29,184l41-8.67v95H206.7v-75l-22.41,5.87Z"/><path class="cls-1" d="M285.41,226.06a92.81,92.81,0,0,0,6.14-7.21,28.73,28.73,0,0,0,3.87-6.67,18.5,18.5,0,0,0,1.33-6.94,13.52,13.52,0,0,0-.93-4.93A12.27,12.27,0,0,0,293,196a14,14,0,0,0-4.54-3,15.48,15.48,0,0,0-6.13-1.14,15,15,0,0,0-8.48,2.34,15.18,15.18,0,0,0-5.47,6.6,23.72,23.72,0,0,0-1.93,9.87H247.79a39.83,39.83,0,0,1,4-18A30.83,30.83,0,0,1,263.6,180q7.8-4.74,19.15-4.74a38.52,38.52,0,0,1,14.74,2.61,31.7,31.7,0,0,1,10.54,6.8,28.08,28.08,0,0,1,6.27,9.27A26.65,26.65,0,0,1,316.37,204a28.5,28.5,0,0,1-3.61,14,45.91,45.91,0,0,1-9.47,11.87l-24.28,23H318.1v17.48H243Z"/><path class="cls-1" d="M334.31,198a38.93,38.93,0,0,1,13.21-16.75,33.25,33.25,0,0,1,19.54-5.93,33.61,33.61,0,0,1,19.88,5.93A38.69,38.69,0,0,1,400,198q4.67,10.8,4.67,25.61T400,249.27A38.65,38.65,0,0,1,386.94,266,33.55,33.55,0,0,1,367.06,272,33.19,33.19,0,0,1,347.52,266a38.9,38.9,0,0,1-13.21-16.74q-4.74-10.82-4.74-25.62T334.31,198Zm15.14,38.49a34,34,0,0,0,3.87,10,19.52,19.52,0,0,0,6,6.47,13.76,13.76,0,0,0,7.73,2.27,14,14,0,0,0,7.87-2.27,19.52,19.52,0,0,0,6-6.47,34,34,0,0,0,3.87-10,63,63,0,0,0,0-25.75,34.15,34.15,0,0,0-3.87-10,19.72,19.72,0,0,0-6-6.47,14.05,14.05,0,0,0-7.87-2.26,13.83,13.83,0,0,0-7.73,2.26,19.72,19.72,0,0,0-6,6.47,34.15,34.15,0,0,0-3.87,10,63,63,0,0,0,0,25.75Z"/><path class="cls-1" d="M424.4,213.41l-6.74,13.93-5.35-1.28,4.9-14.43Z"/><path class="cls-1" d="M432,187.55a16.23,16.23,0,0,1,5.52-7,13.89,13.89,0,0,1,8.16-2.48,14.05,14.05,0,0,1,8.31,2.48,16.12,16.12,0,0,1,5.46,7,30.33,30.33,0,0,1,0,21.4,16.21,16.21,0,0,1-5.46,7,14,14,0,0,1-8.31,2.47,13.88,13.88,0,0,1-8.16-2.47,16.32,16.32,0,0,1-5.52-7,29.9,29.9,0,0,1,0-21.4Zm6.33,16.08a14.29,14.29,0,0,0,1.61,4.18,8.21,8.21,0,0,0,2.51,2.7,5.79,5.79,0,0,0,3.23,1,5.9,5.9,0,0,0,3.29-1,8.21,8.21,0,0,0,2.51-2.7,14.29,14.29,0,0,0,1.61-4.18,26.08,26.08,0,0,0,0-10.75,14.29,14.29,0,0,0-1.61-4.18A8.34,8.34,0,0,0,449,186a5.89,5.89,0,0,0-3.29-.94,5.79,5.79,0,0,0-3.23.94,8.34,8.34,0,0,0-2.51,2.71,14.29,14.29,0,0,0-1.61,4.18,26.08,26.08,0,0,0,0,10.75Z"/><path class="cls-1" d="M467.83,187.55a16.23,16.23,0,0,1,5.52-7,13.89,13.89,0,0,1,8.16-2.48,14.05,14.05,0,0,1,8.31,2.48,16.12,16.12,0,0,1,5.46,7,30.33,30.33,0,0,1,0,21.4,16.21,16.21,0,0,1-5.46,7,14,14,0,0,1-8.31,2.47,13.88,13.88,0,0,1-8.16-2.47,16.32,16.32,0,0,1-5.52-7,29.9,29.9,0,0,1,0-21.4Zm6.33,16.08a14.29,14.29,0,0,0,1.61,4.18,8.21,8.21,0,0,0,2.51,2.7,5.79,5.79,0,0,0,3.23,1,5.9,5.9,0,0,0,3.29-1,8.21,8.21,0,0,0,2.51-2.7,14.29,14.29,0,0,0,1.61-4.18,26.08,26.08,0,0,0,0-10.75,14.29,14.29,0,0,0-1.61-4.18A8.34,8.34,0,0,0,484.8,186a5.89,5.89,0,0,0-3.29-.94,5.79,5.79,0,0,0-3.23.94,8.34,8.34,0,0,0-2.51,2.71,14.29,14.29,0,0,0-1.61,4.18,26.08,26.08,0,0,0,0,10.75Z"/><path class="cls-1" d="M53,198.34v43.82H43.89V198.34Zm-3.38,43.82V234h8.83a18.7,18.7,0,0,0,5.45-.78,12.2,12.2,0,0,0,4.5-2.47,11.5,11.5,0,0,0,3-4.29,18.19,18.19,0,0,0,0-12.46,11.5,11.5,0,0,0-3-4.29,12.2,12.2,0,0,0-4.5-2.47,18.7,18.7,0,0,0-5.45-.78H49.65v-8.14h9.14A25.76,25.76,0,0,1,70.84,201a19.63,19.63,0,0,1,8,7.61,24.84,24.84,0,0,1,0,23.22,19.63,19.63,0,0,1-8,7.61,25.76,25.76,0,0,1-12.05,2.69Z"/><path class="cls-1" d="M97.36,198.34v43.82H88.72V198.34Zm-2.88,0h22.1v7.57H94.48Zm0,16.84h20.84v7.45H94.48Zm0,19.41h22.1v7.57H94.48Z"/><path class="cls-1" d="M126.87,211.36a5.26,5.26,0,0,1,7.36,0,5.15,5.15,0,0,1,0,7.14,5.13,5.13,0,1,1-7.36-7.14Zm0,23.51a5.12,5.12,0,0,1,8.8,3.6,5.16,5.16,0,0,1-8.8,3.5,5,5,0,0,1,0-7.1Z"/><path class="cls-1" d="M52.85,360.8v43.82h-9V360.8Zm-3.51,0H58a21,21,0,0,1,8.86,1.69,12.52,12.52,0,0,1,5.6,4.82,15.22,15.22,0,0,1,0,14.87A12.58,12.58,0,0,1,66.9,387,21.12,21.12,0,0,1,58,388.72h-8.7v-7.58H58a8.92,8.92,0,0,0,5.64-1.62,6.56,6.56,0,0,0,0-9.55,9,9,0,0,0-5.64-1.6h-8.7Z"/><path class="cls-1" d="M80.64,373.54a21.67,21.67,0,0,1,12.24-12,26.24,26.24,0,0,1,18.37,0,22.14,22.14,0,0,1,7.36,4.73,21.19,21.19,0,0,1,4.88,7.23,23.7,23.7,0,0,1,1.72,9.17,24,24,0,0,1-1.72,9.17,22.28,22.28,0,0,1-4.82,7.36,21.73,21.73,0,0,1-7.32,4.85,26,26,0,0,1-18.6,0,22.26,22.26,0,0,1-7.35-4.85,21.67,21.67,0,0,1-4.82-7.36,24.4,24.4,0,0,1-1.69-9.17A23.35,23.35,0,0,1,80.64,373.54Zm9.45,16.62a13.1,13.1,0,0,0,12,7,13.44,13.44,0,0,0,7.14-1.88,13.08,13.08,0,0,0,4.79-5.13,17.13,17.13,0,0,0,0-14.9,12.89,12.89,0,0,0-4.76-5.14,14.66,14.66,0,0,0-14.33,0,13.35,13.35,0,0,0-4.83,5.14,16.73,16.73,0,0,0,0,14.9Z"/><path class="cls-1" d="M141.12,360.8v43.82h-9V360.8Zm-3.51,0h9.27a20.13,20.13,0,0,1,8.82,1.75,13.05,13.05,0,0,1,5.57,4.88,14.74,14.74,0,0,1,0,14.62A12.86,12.86,0,0,1,155.7,387a20.13,20.13,0,0,1-8.82,1.76h-9.27v-7.14h8.7a9.87,9.87,0,0,0,4.1-.78,5.92,5.92,0,0,0,2.66-2.26,7.12,7.12,0,0,0,0-7.07,6,6,0,0,0-2.66-2.25,9.86,9.86,0,0,0-4.1-.79h-8.7Zm14,23.41,14.27,20.41H155.26l-13.14-20.41Z"/><path class="cls-1" d="M172.45,373.82a5.25,5.25,0,0,1,7.35,0,5.15,5.15,0,0,1,0,7.14,5.25,5.25,0,0,1-7.35,0,5.07,5.07,0,0,1,0-7.14Zm0,23.51a5.12,5.12,0,0,1,8.79,3.6,5.16,5.16,0,0,1-8.79,3.5,5,5,0,0,1,0-7.1Z"/><path class="cls-1" d="M251.42,431.52l30-35.22,3.34-1.2a16.93,16.93,0,0,1-6.81,4.6,27.1,27.1,0,0,1-8.4,1.13,26.63,26.63,0,0,1-10.41-2.13,29,29,0,0,1-9.14-6.14,29.7,29.7,0,0,1-6.47-9.6,31.21,31.21,0,0,1-2.4-12.41q0-10.94,4.87-18.54a31.45,31.45,0,0,1,13-11.55,43.85,43.85,0,0,1,36.29,0,31.51,31.51,0,0,1,13,11.55q4.86,7.61,4.87,18.54a31,31,0,0,1-2.67,12.87,55.73,55.73,0,0,1-6.54,11l-28.42,37.09Zm40.83-70.24a16.18,16.18,0,0,0-6.2-6.14,19,19,0,0,0-17.75,0,16.18,16.18,0,0,0-6.2,6.14,19.94,19.94,0,0,0,0,18.48,16.59,16.59,0,0,0,6.2,6.27,18.56,18.56,0,0,0,17.75,0,16.59,16.59,0,0,0,6.2-6.27,19.94,19.94,0,0,0,0-18.48Z"/><path class="cls-1" d="M336.81,431.52l30-35.22,3.33-1.2a16.9,16.9,0,0,1-6.8,4.6,27.17,27.17,0,0,1-8.41,1.13,26.62,26.62,0,0,1-10.4-2.13,28.9,28.9,0,0,1-9.14-6.14,29.54,29.54,0,0,1-6.47-9.6,31.21,31.21,0,0,1-2.4-12.41q0-10.94,4.87-18.54a31.42,31.42,0,0,1,13-11.55,43.85,43.85,0,0,1,36.29,0,31.45,31.45,0,0,1,13,11.55q4.88,7.61,4.87,18.54a31,31,0,0,1-2.67,12.87,56.18,56.18,0,0,1-6.53,11L361,431.52Zm40.82-70.24a16.18,16.18,0,0,0-6.2-6.14,19,19,0,0,0-17.74,0,16.14,16.14,0,0,0-6.21,6.14,19.94,19.94,0,0,0,0,18.48,16.54,16.54,0,0,0,6.21,6.27,18.54,18.54,0,0,0,17.74,0,16.59,16.59,0,0,0,6.2-6.27,19.94,19.94,0,0,0,0-18.48Z"/><path class="cls-1" d="M419.63,374.85l-6.74,13.93-5.35-1.28,4.9-14.44Z"/><path class="cls-1" d="M430.1,379.08l12.54-14.71,1.39-.5a7,7,0,0,1-2.84,1.92,11.88,11.88,0,0,1-7.86-.41,12.09,12.09,0,0,1-3.81-2.57,12.29,12.29,0,0,1-2.71-4,13.18,13.18,0,0,1-1-5.18,14,14,0,0,1,2-7.75,13.05,13.05,0,0,1,5.43-4.82,18.34,18.34,0,0,1,15.16,0,13.17,13.17,0,0,1,5.43,4.82,14.13,14.13,0,0,1,2,7.75,13.05,13.05,0,0,1-1.11,5.38,24,24,0,0,1-2.73,4.59l-11.87,15.49Zm17-29.34a6.71,6.71,0,0,0-2.59-2.56,7.92,7.92,0,0,0-7.41,0,6.77,6.77,0,0,0-2.59,2.56,8.32,8.32,0,0,0,0,7.72,6.86,6.86,0,0,0,2.59,2.62,7.7,7.7,0,0,0,7.41,0,6.79,6.79,0,0,0,2.59-2.62,8.32,8.32,0,0,0,0-7.72Z"/><path class="cls-1" d="M462.9,349a16.14,16.14,0,0,1,5.51-7,13.9,13.9,0,0,1,8.17-2.48,14,14,0,0,1,8.3,2.48,16.12,16.12,0,0,1,5.46,7,30.33,30.33,0,0,1,0,21.4,16.12,16.12,0,0,1-5.46,7,14,14,0,0,1-8.3,2.48,13.83,13.83,0,0,1-8.17-2.48,16.14,16.14,0,0,1-5.51-7,29.9,29.9,0,0,1,0-21.4Zm6.32,16.08a14.13,14.13,0,0,0,1.62,4.18,8.18,8.18,0,0,0,2.5,2.7,6.07,6.07,0,0,0,6.52,0,8.1,8.1,0,0,0,2.51-2.7,14.13,14.13,0,0,0,1.62-4.18,26.59,26.59,0,0,0,0-10.76,14.13,14.13,0,0,0-1.62-4.18,8.1,8.1,0,0,0-2.51-2.7,6.07,6.07,0,0,0-6.52,0,8.18,8.18,0,0,0-2.5,2.7,14.13,14.13,0,0,0-1.62,4.18,26.12,26.12,0,0,0,0,10.76Z"/><line class="cls-1" x1="229" y1="163.35" x2="499" y2="285.84"/><path class="cls-2" d="M229,169.87l7.23,3.27,19.67,8.93L285,195.26l35.49,16.1L359.33,229l39.1,17.74,36.46,16.54,30.92,14L488,287.38l6.91,3.14a33.13,33.13,0,0,0,3.6,1.63,3.68,3.68,0,0,1,.45.21s.05-2.2.05-1.91c0-1.54,0-3.07,0-4.61s0-3.07,0-4.61a8.33,8.33,0,0,0-.05-1.9l-7.23-3.28-19.67-8.93L443,253.93l-35.49-16.1L368.67,220.2l-39.1-17.74-36.46-16.54-30.92-14L240,161.81l-6.91-3.14a33.13,33.13,0,0,0-3.6-1.63c-.16,0-.3-.14-.45-.2,0,0-.05,2.19-.05,1.9,0,1.54,0,3.07,0,4.61s0,3.07,0,4.61a8.44,8.44,0,0,0,.05,1.91Z"/><line class="cls-1" x1="499" y1="163.35" x2="229" y2="285.84"/><path class="cls-2" d="M499,156.84l-7.23,3.27L472.1,169,443,182.23l-35.49,16.1L368.67,216l-39.1,17.74-36.46,16.54-30.92,14L240,274.35l-6.91,3.14a38.85,38.85,0,0,0-3.6,1.63c-.14.08-.3.14-.45.21a14.41,14.41,0,0,0-.05,1.9c0,1.54,0,3.08,0,4.61s0,3.07,0,4.61a14.18,14.18,0,0,1,.05,1.91l7.23-3.28,19.67-8.93L285,267l35.49-16.1,38.86-17.63,39.1-17.74L434.89,199l30.92-14L488,174.84,495,171.7a36.39,36.39,0,0,0,3.6-1.63,3.62,3.62,0,0,1,.45-.2,14.59,14.59,0,0,0,.05-1.91c0-1.54,0-3.07,0-4.61s0-3.07,0-4.61a14.07,14.07,0,0,1-.05-1.9Z"/><rect class="cls-1" y="423.96" width="10" height="19.73"/><rect class="cls-1" x="27.5" y="485.16" width="25" height="7.94"/><polygon class="cls-1" points="0 56.98 10 56.98 10 51.03 17.5 51.03 17.5 43.1 0 43.1 0 56.98"/><polygon class="cls-1" points="10 479.21 0 479.21 0 493.1 17.5 493.1 17.5 485.16 10 485.16 10 479.21"/><rect class="cls-1" y="451.58" width="10" height="19.73"/><rect class="cls-1" y="396.34" width="10" height="19.73"/><rect class="cls-1" x="132.5" y="485.16" width="25" height="7.94"/><rect class="cls-1" x="237.5" y="485.16" width="25" height="7.94"/><rect class="cls-1" x="202.5" y="485.16" width="25" height="7.94"/><rect class="cls-1" x="62.5" y="43.1" width="25" height="7.94"/><rect class="cls-1" x="62.5" y="485.16" width="25" height="7.94"/><rect class="cls-1" x="97.5" y="485.16" width="25" height="7.94"/><rect class="cls-1" x="167.5" y="485.16" width="25" height="7.94"/><rect class="cls-1" y="92.5" width="10" height="19.73"/><rect class="cls-1" y="120.12" width="10" height="19.73"/><rect class="cls-1" y="147.74" width="10" height="19.73"/><rect class="cls-1" x="97.5" y="43.1" width="11" height="7.94"/><rect class="cls-1" y="368.72" width="10" height="19.73"/><rect class="cls-1" y="64.88" width="10" height="19.73"/><rect class="cls-1" y="175.36" width="10" height="19.73"/><rect class="cls-1" y="313.47" width="10" height="19.73"/><rect class="cls-1" y="202.99" width="10" height="19.73"/><rect class="cls-1" y="341.1" width="10" height="19.73"/><rect class="cls-1" y="285.85" width="10" height="19.73"/><rect class="cls-1" y="230.61" width="10" height="19.73"/><rect class="cls-1" y="258.23" width="10" height="19.73"/><rect class="cls-1" x="27.5" y="43.1" width="25" height="7.94"/><rect class="cls-1" x="525" y="258.23" width="10" height="19.73"/><rect class="cls-1" x="525" y="230.61" width="10" height="19.73"/><rect class="cls-1" x="525" y="285.85" width="10" height="19.73"/><rect class="cls-1" x="525" y="202.99" width="10" height="19.73"/><rect class="cls-1" x="525" y="341.1" width="10" height="19.73"/><rect class="cls-1" x="272.5" y="485.16" width="25" height="7.94"/><rect class="cls-1" x="525" y="147.74" width="10" height="19.73"/><rect class="cls-1" x="525" y="175.36" width="10" height="19.73"/><rect class="cls-1" x="525" y="64.88" width="10" height="19.73"/><polygon class="cls-1" points="517.5 43.1 517.5 51.03 525 51.03 525 56.98 535 56.98 535 43.1 517.5 43.1"/><rect class="cls-1" x="525" y="92.5" width="10" height="19.73"/><rect class="cls-1" x="525" y="368.72" width="10" height="19.73"/><rect class="cls-1" x="525" y="120.12" width="10" height="19.73"/><rect class="cls-1" x="525" y="313.47" width="10" height="19.73"/><rect class="cls-1" x="412.5" y="485.16" width="25" height="7.94"/><rect class="cls-1" x="426.5" y="43.1" width="11" height="7.94"/><rect class="cls-1" x="447.5" y="485.16" width="25" height="7.94"/><rect class="cls-1" x="377.5" y="485.16" width="25" height="7.94"/><rect class="cls-1" x="525" y="396.34" width="10" height="19.73"/><rect class="cls-1" x="342.5" y="485.16" width="25" height="7.94"/><rect class="cls-1" x="307.5" y="485.16" width="25" height="7.94"/><rect class="cls-1" x="525" y="451.58" width="10" height="19.73"/><polygon class="cls-1" points="525 485.16 517.5 485.16 517.5 493.1 535 493.1 535 479.21 525 479.21 525 485.16"/><rect class="cls-1" x="525" y="423.96" width="10" height="19.73"/><rect class="cls-1" x="447.5" y="43.1" width="25" height="7.94"/><rect class="cls-1" x="482.5" y="485.16" width="25" height="7.94"/><rect class="cls-1" x="482.5" y="43.1" width="25" height="7.94"/><path class="cls-1" d="M149,15.46V58.92h-3.41V15.46Zm-1.61,0h8.13A18.25,18.25,0,0,1,163,17a12.29,12.29,0,0,1,5.25,4.28,11.77,11.77,0,0,1,1.93,6.83A11.63,11.63,0,0,1,163,39.21a18.58,18.58,0,0,1-7.54,1.45h-8.13v-3h8.13a15.06,15.06,0,0,0,5.87-1.08,8.76,8.76,0,0,0,4-3.23,9.28,9.28,0,0,0,1.43-5.25,8.94,8.94,0,0,0-1.46-5.21,9.23,9.23,0,0,0-4-3.23,14.32,14.32,0,0,0-5.84-1.12h-8.13Zm9.37,22.72,14.84,20.74h-4.22L153,38.18Z"/><path class="cls-1" d="M177.16,28.34a21.26,21.26,0,0,1,4.53-7.08,20.76,20.76,0,0,1,6.86-4.68,22.85,22.85,0,0,1,17.2,0,20.76,20.76,0,0,1,6.86,4.68,21.58,21.58,0,0,1,4.53,7.08,23.69,23.69,0,0,1,1.61,8.85A23.64,23.64,0,0,1,217.14,46a21.48,21.48,0,0,1-4.53,7.08,20.79,20.79,0,0,1-6.86,4.69,23,23,0,0,1-17.2,0,20.79,20.79,0,0,1-6.86-4.69A21.16,21.16,0,0,1,177.16,46a23.64,23.64,0,0,1-1.62-8.84A23.69,23.69,0,0,1,177.16,28.34Zm4.31,18.53a17.44,17.44,0,0,0,6.4,6.74,18.8,18.8,0,0,0,18.56,0,17.2,17.2,0,0,0,6.36-6.74,20.15,20.15,0,0,0,2.3-9.68,20.17,20.17,0,0,0-2.3-9.72,17.23,17.23,0,0,0-6.36-6.7,17.87,17.87,0,0,0-25,6.7,20,20,0,0,0-2.32,9.72A19.94,19.94,0,0,0,181.47,46.87Z"/><path class="cls-1" d="M230.11,15.46V58.92H226.7V15.46Zm-1.55,43.46V55.5h9.94a19.91,19.91,0,0,0,7.35-1.3,15.86,15.86,0,0,0,9.31-9.47,21.26,21.26,0,0,0,1.28-7.54,21.32,21.32,0,0,0-1.28-7.55,15.81,15.81,0,0,0-9.31-9.46,19.91,19.91,0,0,0-7.35-1.31h-9.94V15.46h9.94a22.19,22.19,0,0,1,11.14,2.73,19.39,19.39,0,0,1,7.51,7.6,23.15,23.15,0,0,1,2.7,11.4,23.14,23.14,0,0,1-2.7,11.39,19.33,19.33,0,0,1-7.51,7.6,22.09,22.09,0,0,1-11.14,2.74Z"/><path class="cls-1" d="M267.05,11.17l-1.74-1.24L275.12,0l3,1.68Zm4,4.29V58.92h-3.42V15.46Z"/><path class="cls-1" d="M278.48,15.46h30.17L283.07,55.69h24.58v3.23H277.23l25.58-40.23H278.48Z"/><path class="cls-1" d="M318.27,15.46V58.92h-3.42V15.46Z"/><path class="cls-1" d="M327.71,28.34a21.26,21.26,0,0,1,4.53-7.08,20.66,20.66,0,0,1,6.86-4.68,22.83,22.83,0,0,1,17.19,0,20.66,20.66,0,0,1,6.86,4.68,21.44,21.44,0,0,1,4.54,7.08,23.89,23.89,0,0,1,1.61,8.85A23.84,23.84,0,0,1,367.69,46a21.34,21.34,0,0,1-4.54,7.08,20.69,20.69,0,0,1-6.86,4.69,23,23,0,0,1-17.19,0,20.69,20.69,0,0,1-6.86-4.69A21.16,21.16,0,0,1,327.71,46a23.64,23.64,0,0,1-1.62-8.84A23.69,23.69,0,0,1,327.71,28.34ZM332,46.87a17.37,17.37,0,0,0,6.4,6.74,18.8,18.8,0,0,0,18.56,0,17.2,17.2,0,0,0,6.36-6.74,20.15,20.15,0,0,0,2.3-9.68,20.17,20.17,0,0,0-2.3-9.72,17.23,17.23,0,0,0-6.36-6.7,18.73,18.73,0,0,0-18.56,0,17.4,17.4,0,0,0-6.4,6.7,20,20,0,0,0-2.33,9.72A19.94,19.94,0,0,0,332,46.87Z"/><path class="cls-1" d="M120,97.3a17.76,17.76,0,0,0,6.33,6.65,16.77,16.77,0,0,0,8.88,2.42,21.59,21.59,0,0,0,5.65-.69,15.73,15.73,0,0,0,4.63-2,18.06,18.06,0,0,0,3.69-3.23V105a18.77,18.77,0,0,1-6,3.63,22.9,22.9,0,0,1-8,1.21,21.45,21.45,0,0,1-8.41-1.64,20.13,20.13,0,0,1-6.74-4.63,21.52,21.52,0,0,1-4.47-7.07,25.63,25.63,0,0,1,0-17.88,21.56,21.56,0,0,1,4.47-7.08,20.13,20.13,0,0,1,6.74-4.63,21.45,21.45,0,0,1,8.41-1.64,22.9,22.9,0,0,1,8,1.21,19.14,19.14,0,0,1,6,3.63v4.53a16.8,16.8,0,0,0-3.73-3.19,16.47,16.47,0,0,0-4.65-2,21.36,21.36,0,0,0-5.59-.68,16.84,16.84,0,0,0-8.88,2.39A17.42,17.42,0,0,0,120,77.75a21.42,21.42,0,0,0,0,19.55Z"/><path class="cls-1" d="M158.13,78.71a21.58,21.58,0,0,1,4.53-7.08A20.61,20.61,0,0,1,169.52,67a22.85,22.85,0,0,1,17.2,0,20.61,20.61,0,0,1,6.86,4.68,21.58,21.58,0,0,1,4.53,7.08,25.1,25.1,0,0,1,0,17.69,21.58,21.58,0,0,1-4.53,7.08,20.79,20.79,0,0,1-6.86,4.69,23,23,0,0,1-17.2,0,20.79,20.79,0,0,1-6.86-4.69,21.58,21.58,0,0,1-4.53-7.08,25.1,25.1,0,0,1,0-17.69Zm4.31,18.53a18.23,18.23,0,0,0,25,6.74,17.2,17.2,0,0,0,6.36-6.74,21.6,21.6,0,0,0,0-19.4,17.23,17.23,0,0,0-6.36-6.7,17.87,17.87,0,0,0-25,6.7,21.44,21.44,0,0,0,0,19.4Z"/><path class="cls-1" d="M208.85,109.29h-3.41l5-45.14,17.39,33.4,17.38-33.4,5,45.14h-3.41l-3.73-34.4-15.27,29.37L212.58,74.89Z"/><path class="cls-1" d="M261.87,65.83v43.46h-3.42V65.83Zm-1.49,0h8.26a16.54,16.54,0,0,1,7.29,1.55,11.9,11.9,0,0,1,6.92,11.3A12.55,12.55,0,0,1,281,85.57,11.92,11.92,0,0,1,275.93,90a16.82,16.82,0,0,1-7.29,1.52h-8.26V88.3h8.26a11.77,11.77,0,0,0,7.76-2.48,8.8,8.8,0,0,0,3-7.14c0-3.15-1-5.54-3-7.17a11.81,11.81,0,0,0-7.76-2.45h-8.26Z"/><path class="cls-1" d="M294.21,65.83v40.23h18v3.23H290.8V65.83Z"/><path class="cls-1" d="M321.65,65.83v43.46h-3.41V65.83Zm-1.61,0h21.54v3.23H320Zm0,18h20.3v3.23H320Zm0,22.23h21.54v3.23H320Z"/><path class="cls-1" d="M347,65.83h26.27v3.23H361.88v40.23h-3.41V69.06H347Z"/><path class="cls-1" d="M375.42,78.71A21.26,21.26,0,0,1,380,71.63,20.51,20.51,0,0,1,386.81,67,22.85,22.85,0,0,1,404,67a20.71,20.71,0,0,1,6.86,4.68,21.58,21.58,0,0,1,4.53,7.08,25.1,25.1,0,0,1,0,17.69,21.58,21.58,0,0,1-4.53,7.08,20.89,20.89,0,0,1-6.86,4.69,23,23,0,0,1-17.2,0,20.69,20.69,0,0,1-6.86-4.69,21.26,21.26,0,0,1-4.53-7.08,25,25,0,0,1,0-17.69Zm4.31,18.53a17.37,17.37,0,0,0,6.4,6.74,18.8,18.8,0,0,0,18.56,0,17.2,17.2,0,0,0,6.36-6.74,21.6,21.6,0,0,0,0-19.4,17.23,17.23,0,0,0-6.36-6.7,18.73,18.73,0,0,0-18.56,0,17.4,17.4,0,0,0-6.4,6.7,21.36,21.36,0,0,0,0,19.4Z"/></g></g></svg>