<svg xmlns="http://www.w3.org/2000/svg" viewBox="0 0 535 610.1"><defs><style>.cls-1{fill:#fff;}.cls-2{fill:#f9eded;}</style></defs><g id="Capa_2" data-name="Capa 2"><g id="Capa_1-2" data-name="Capa 1"><path class="cls-1" d="M159,491.55h2.67l-13.29,31.26-13.29-31.26h2.67l10.62,25.75Z"/><path class="cls-1" d="M166.41,518.25a3.6,3.6,0,0,0,1.76,1.37,7,7,0,0,0,2.54.43,7.4,7.4,0,0,0,3.24-.68,5.32,5.32,0,0,0,2.26-2,5.71,5.71,0,0,0,.82-3.14l.51,1.29a6.1,6.1,0,0,1-1,3.38,6.74,6.74,0,0,1-2.63,2.32,8.16,8.16,0,0,1-3.76.84,8.38,8.38,0,0,1-3.37-.67,5.56,5.56,0,0,1-2.43-2,5.79,5.79,0,0,1-.91-3.31,6,6,0,0,1,1.12-3.7,7,7,0,0,1,3-2.21,10.63,10.63,0,0,1,4.06-.76,9.86,9.86,0,0,1,3.08.43,8.42,8.42,0,0,1,2.06,1,7.19,7.19,0,0,1,1.14.95v1.37a10.36,10.36,0,0,0-2.69-1.44,10.48,10.48,0,0,0-3.5-.53,8.61,8.61,0,0,0-3.12.53,4.71,4.71,0,0,0-2.1,1.57,4.7,4.7,0,0,0-.11,5Zm-1.21-14.19a18.27,18.27,0,0,1,2.91-1.74,9.65,9.65,0,0,1,4.32-.88,8.23,8.23,0,0,1,3.67.75,5.47,5.47,0,0,1,2.35,2.13,6.39,6.39,0,0,1,.81,3.31v14H177v-14a4.34,4.34,0,0,0-.58-2.28,3.81,3.81,0,0,0-1.61-1.44,5.55,5.55,0,0,0-2.41-.5,8.64,8.64,0,0,0-2.58.37,8.34,8.34,0,0,0-2,.92,12.9,12.9,0,0,0-1.49,1.08Zm5.72-5.55-1.24-.86,6.79-6.88,2.06,1.16Z"/><path class="cls-1" d="M187.65,488.11v33.54h-2.24V488.11Z"/><path class="cls-1" d="M194.9,491.8a1.61,1.61,0,0,1,2.27,0,1.59,1.59,0,0,1,0,2.24,1.61,1.61,0,0,1-2.27,0,1.59,1.59,0,0,1,0-2.24Zm2.25,10.07v19.78h-2.23V501.87Z"/><path class="cls-1" d="M204,506.25a9.08,9.08,0,0,1,3.46-3.57,9.49,9.49,0,0,1,4.8-1.24,7.56,7.56,0,0,1,3.44.77,7.77,7.77,0,0,1,2.64,2.17,10.36,10.36,0,0,1,1.7,3.29,14.21,14.21,0,0,1,0,8.17,10.36,10.36,0,0,1-1.7,3.29,7.66,7.66,0,0,1-2.64,2.17,7.56,7.56,0,0,1-3.44.78,9.5,9.5,0,0,1-4.8-1.25,9.08,9.08,0,0,1-3.46-3.57,12.39,12.39,0,0,1,0-11Zm2,9.91a7.38,7.38,0,0,0,2.75,2.82,7.47,7.47,0,0,0,3.79,1,6.13,6.13,0,0,0,2.64-.6,7,7,0,0,0,2.26-1.72A8.63,8.63,0,0,0,219,515a9.48,9.48,0,0,0,0-6.53,8.63,8.63,0,0,0-1.57-2.63,7.19,7.19,0,0,0-2.26-1.72,6.13,6.13,0,0,0-2.64-.6,7.66,7.66,0,0,0-3.79,1,7.18,7.18,0,0,0-2.75,2.82,8.93,8.93,0,0,0-1,4.43A8.76,8.76,0,0,0,206,516.16Zm15.82-28v33.54H219.6V488.11Z"/><path class="cls-1" d="M228,506.42a9.85,9.85,0,0,1,3.63-3.65,10.75,10.75,0,0,1,10.36,0,9.81,9.81,0,0,1,3.64,3.65,11.32,11.32,0,0,1,0,10.65,9.72,9.72,0,0,1-3.64,3.67,10.68,10.68,0,0,1-10.36,0,9.76,9.76,0,0,1-3.63-3.67,11.25,11.25,0,0,1,0-10.65Zm2,9.57a7.64,7.64,0,0,0,2.82,2.93,8.22,8.22,0,0,0,8,0,7.64,7.64,0,0,0,2.82-2.93,9.26,9.26,0,0,0,0-8.49,7.84,7.84,0,0,0-13.68,0,9.26,9.26,0,0,0,0,8.49Z"/><path class="cls-1" d="M264.53,506.25a9.15,9.15,0,0,1,3.46-3.57,9.49,9.49,0,0,1,4.8-1.24,7.53,7.53,0,0,1,3.44.77,7.77,7.77,0,0,1,2.64,2.17,10.36,10.36,0,0,1,1.7,3.29,14.21,14.21,0,0,1,0,8.17,10.36,10.36,0,0,1-1.7,3.29,7.66,7.66,0,0,1-2.64,2.17,7.53,7.53,0,0,1-3.44.78,9.5,9.5,0,0,1-4.8-1.25,9.15,9.15,0,0,1-3.46-3.57,12.39,12.39,0,0,1,0-11Zm2,9.91a7.36,7.36,0,0,0,6.54,3.81,6.07,6.07,0,0,0,2.64-.6,7,7,0,0,0,2.26-1.72,8.63,8.63,0,0,0,1.57-2.63,9.48,9.48,0,0,0,0-6.53,8.63,8.63,0,0,0-1.57-2.63,7.19,7.19,0,0,0-2.26-1.72,6.07,6.07,0,0,0-2.64-.6,7.6,7.6,0,0,0-3.78,1,7.14,7.14,0,0,0-2.76,2.82,9,9,0,0,0-1,4.43A8.86,8.86,0,0,0,266.55,516.16Zm15.83-28v33.54h-2.24V488.11Z"/><path class="cls-1" d="M291.67,520.74a9.21,9.21,0,0,1-3.25-3.67,11.74,11.74,0,0,1-1.18-5.36,11.93,11.93,0,0,1,.68-4.15,9.57,9.57,0,0,1,2-3.24,8.78,8.78,0,0,1,3-2.13,9.62,9.62,0,0,1,3.85-.75,9,9,0,0,1,4.75,1.24,8.59,8.59,0,0,1,3.18,3.44,11,11,0,0,1,1.14,5.12c0,.17,0,.37,0,.58a3.4,3.4,0,0,1-.06.49H288.66v-1.93h15.39l-.95,1.33c.06-.14.12-.34.2-.6a2.67,2.67,0,0,0,.1-.69,7.41,7.41,0,0,0-.86-3.61,6.36,6.36,0,0,0-2.36-2.49,6.5,6.5,0,0,0-3.44-.91,7.36,7.36,0,0,0-2.95.58,6.76,6.76,0,0,0-2.28,1.66,7.61,7.61,0,0,0-1.48,2.58,10.37,10.37,0,0,0-.52,3.35,10.24,10.24,0,0,0,.89,4.39,7,7,0,0,0,2.49,2.95,6.75,6.75,0,0,0,3.76,1.05,7.76,7.76,0,0,0,4-1,9.1,9.1,0,0,0,3-3.1l1.81,1.16a11.27,11.27,0,0,1-3.89,3.81,10.54,10.54,0,0,1-5.19,1.23A8.49,8.49,0,0,1,291.67,520.74Z"/><path class="cls-1" d="M324,493.44l9.29-2.24v30.45H331V494.08L324,495.89Z"/><path class="cls-1" d="M356.55,491.55h.9v30.1h-2.36V497l-11.18,16.51h18.27v2.11H340Z"/><path class="cls-1" d="M380.89,518.21a4.12,4.12,0,0,0,1.83,1.46,6.43,6.43,0,0,0,2.47.47,6.27,6.27,0,0,0,3.07-.77,5.9,5.9,0,0,0,2.26-2.28,7.42,7.42,0,0,0,.86-3.7l.52,1.89a6.32,6.32,0,0,1-1.12,3.81,6.79,6.79,0,0,1-2.8,2.25,8.36,8.36,0,0,1-3.39.74,7.59,7.59,0,0,1-3.21-.71,6.2,6.2,0,0,1-2.49-2.11,5.91,5.91,0,0,1-1-3.46,6.07,6.07,0,0,1,.9-3.34,5.88,5.88,0,0,1,2.58-2.14,9.49,9.49,0,0,1,4-.76,11.09,11.09,0,0,1,3.35.45,11.25,11.25,0,0,1,2.33,1,6.1,6.1,0,0,1,1.24,1v1.42a9.76,9.76,0,0,0-3.09-1.55,12.69,12.69,0,0,0-3.49-.47,8.2,8.2,0,0,0-2.88.47,3.85,3.85,0,0,0-2.62,3.87A4.29,4.29,0,0,0,380.89,518.21Zm-1.72-14.41a15.43,15.43,0,0,1,2.92-1.59,11.09,11.09,0,0,1,4.39-.77,9.12,9.12,0,0,1,3.83.73,5.55,5.55,0,0,1,2.45,2.1,6.26,6.26,0,0,1,.86,3.36v14h-2.24V507.93a5.44,5.44,0,0,0-.26-1.66,3.9,3.9,0,0,0-.84-1.44,4,4,0,0,0-1.57-1,6.56,6.56,0,0,0-2.4-.39,9.25,9.25,0,0,0-2.63.35,10.14,10.14,0,0,0-2,.81,12.46,12.46,0,0,0-1.39.91Z"/><path class="cls-1" d="M68.71,536.44,78,534.2v30.45H75.64V537.08l-6.93,1.81Z"/><path class="cls-1" d="M100.83,534.55,91,547.92l-.17-.13a5.94,5.94,0,0,1,2.54-1.89,9.22,9.22,0,0,1,3.31-.56,8.26,8.26,0,0,1,3.46.73,9.05,9.05,0,0,1,2.84,2,9.71,9.71,0,0,1,1.91,3.06,10.1,10.1,0,0,1,.69,3.76,10.78,10.78,0,0,1-1.27,5.29,9.33,9.33,0,0,1-3.48,3.57,10.85,10.85,0,0,1-10.26,0,9.17,9.17,0,0,1-3.5-3.57,10.67,10.67,0,0,1-1.27-5.29,10.56,10.56,0,0,1,.62-3.57,12.52,12.52,0,0,1,1.48-2.93l9.94-13.88ZM89.07,559.06a7.19,7.19,0,0,0,2.69,2.83,8,8,0,0,0,7.91,0,7.12,7.12,0,0,0,2.69-2.83,8.57,8.57,0,0,0,1-4.13,7.92,7.92,0,0,0-1-4,7.77,7.77,0,0,0-2.69-2.8,7.06,7.06,0,0,0-3.74-1,7.72,7.72,0,0,0-4.11,1.06A7.37,7.37,0,0,0,89.07,551a8.18,8.18,0,0,0-1,3.94A8.68,8.68,0,0,0,89.07,559.06Z"/><path class="cls-1" d="M123.62,549.25a9.1,9.1,0,0,1,3.47-3.57,9.42,9.42,0,0,1,4.79-1.24,7.53,7.53,0,0,1,3.44.77,7.77,7.77,0,0,1,2.64,2.17,10.16,10.16,0,0,1,1.7,3.29,14.21,14.21,0,0,1,0,8.17,10.16,10.16,0,0,1-1.7,3.29,7.66,7.66,0,0,1-2.64,2.17,7.53,7.53,0,0,1-3.44.78,9.43,9.43,0,0,1-4.79-1.25,9.1,9.1,0,0,1-3.47-3.57,12.39,12.39,0,0,1,0-11Zm2,9.91a7.36,7.36,0,0,0,6.54,3.81,6.14,6.14,0,0,0,2.65-.6,7.12,7.12,0,0,0,2.25-1.72,8.44,8.44,0,0,0,1.57-2.63,9.48,9.48,0,0,0,0-6.53,8.44,8.44,0,0,0-1.57-2.63,7.27,7.27,0,0,0-2.25-1.72,6.14,6.14,0,0,0-2.65-.6,7.6,7.6,0,0,0-3.78,1,7.14,7.14,0,0,0-2.76,2.82,9,9,0,0,0-1,4.43A8.86,8.86,0,0,0,125.64,559.16Zm15.83-28v33.54h-2.24V531.11Z"/><path class="cls-1" d="M150.76,563.74a9.21,9.21,0,0,1-3.25-3.67,11.74,11.74,0,0,1-1.18-5.36,11.93,11.93,0,0,1,.69-4.15,9.54,9.54,0,0,1,1.95-3.24,8.78,8.78,0,0,1,3-2.13,9.65,9.65,0,0,1,3.85-.75,8.92,8.92,0,0,1,4.75,1.24,8.59,8.59,0,0,1,3.18,3.44,11,11,0,0,1,1.14,5.12c0,.17,0,.37,0,.58a2.39,2.39,0,0,1-.06.49H147.75v-1.93h15.39l-.95,1.33a4.6,4.6,0,0,0,.2-.6,2.72,2.72,0,0,0,.11-.69,7.52,7.52,0,0,0-.86-3.61,6.42,6.42,0,0,0-5.81-3.4,7.36,7.36,0,0,0-3,.58,6.63,6.63,0,0,0-2.27,1.66,7.47,7.47,0,0,0-1.49,2.58,10.38,10.38,0,0,0-.51,3.35,10.24,10.24,0,0,0,.88,4.39,7,7,0,0,0,2.49,2.95,6.76,6.76,0,0,0,3.77,1.05,7.75,7.75,0,0,0,4-1,9.1,9.1,0,0,0,3-3.1l1.81,1.16a11.27,11.27,0,0,1-3.89,3.81,10.53,10.53,0,0,1-5.18,1.23A8.5,8.5,0,0,1,150.76,563.74Z"/><path class="cls-1" d="M183.87,561.21a4,4,0,0,0,1.82,1.46,6.52,6.52,0,0,0,2.48.47,6.3,6.3,0,0,0,3.07-.77,6,6,0,0,0,2.26-2.28,7.42,7.42,0,0,0,.86-3.7l.51,1.89a6.32,6.32,0,0,1-1.11,3.81,6.79,6.79,0,0,1-2.8,2.25,8.41,8.41,0,0,1-3.4.74,7.58,7.58,0,0,1-3.2-.71,6.14,6.14,0,0,1-2.49-2.11,5.91,5.91,0,0,1-1-3.46,6.07,6.07,0,0,1,.9-3.34,5.77,5.77,0,0,1,2.58-2.14,9.49,9.49,0,0,1,4-.76,11.09,11.09,0,0,1,3.35.45,10.91,10.91,0,0,1,2.32,1,5.94,5.94,0,0,1,1.25,1v1.42a9.86,9.86,0,0,0-3.09-1.55,12.74,12.74,0,0,0-3.49-.47,8.2,8.2,0,0,0-2.88.47,3.85,3.85,0,0,0-2.62,3.87A4.29,4.29,0,0,0,183.87,561.21Zm-1.72-14.41a15.43,15.43,0,0,1,2.92-1.59,11.06,11.06,0,0,1,4.39-.77,9,9,0,0,1,3.82.73,5.5,5.5,0,0,1,2.45,2.1,6.17,6.17,0,0,1,.86,3.36v14h-2.23V550.93a5.44,5.44,0,0,0-.26-1.66,3.9,3.9,0,0,0-.84-1.44,4.09,4.09,0,0,0-1.57-1,6.58,6.58,0,0,0-2.41-.39,9.18,9.18,0,0,0-2.62.35,10.14,10.14,0,0,0-2,.81,12.68,12.68,0,0,0-1.4.91Z"/><path class="cls-1" d="M202.27,549.25a9.08,9.08,0,0,1,3.46-3.57,9.49,9.49,0,0,1,4.8-1.24,7.56,7.56,0,0,1,3.44.77,7.77,7.77,0,0,1,2.64,2.17,10.36,10.36,0,0,1,1.7,3.29,14.21,14.21,0,0,1,0,8.17,10.36,10.36,0,0,1-1.7,3.29A7.66,7.66,0,0,1,214,564.3a7.56,7.56,0,0,1-3.44.78,9.5,9.5,0,0,1-4.8-1.25,9.08,9.08,0,0,1-3.46-3.57,12.39,12.39,0,0,1,0-11Zm1.46,16.69a6.46,6.46,0,0,0,.86,3.31,6.24,6.24,0,0,0,2.43,2.32,7.49,7.49,0,0,0,3.63.86,7.32,7.32,0,0,0,3.49-.88,7,7,0,0,0,2.69-2.69,9.13,9.13,0,0,0,1-4.64V544.87h2.23v19.35a11.17,11.17,0,0,1-1.33,5.69,8.83,8.83,0,0,1-3.48,3.46,9.58,9.58,0,0,1-4.65,1.17,10.28,10.28,0,0,1-4.79-1.08,8,8,0,0,1-3.25-3,8.68,8.68,0,0,1-1.16-4.49Zm.56-6.78A7.38,7.38,0,0,0,207,562a7.47,7.47,0,0,0,3.79,1,5.86,5.86,0,0,0,2.64-.63,7.31,7.31,0,0,0,2.26-1.71A8.4,8.4,0,0,0,217.3,558a9.47,9.47,0,0,0,.58-3.33,8.58,8.58,0,0,0-2.15-5.76,7.11,7.11,0,0,0-2.26-1.74,5.86,5.86,0,0,0-2.64-.63,7.66,7.66,0,0,0-3.79,1,7.18,7.18,0,0,0-2.75,2.82,8.93,8.93,0,0,0-1,4.43A8.76,8.76,0,0,0,204.29,559.16Z"/><path class="cls-1" d="M226.31,549.42a9.78,9.78,0,0,1,3.63-3.65,10.75,10.75,0,0,1,10.36,0,9.81,9.81,0,0,1,3.64,3.65,11.32,11.32,0,0,1,0,10.65,9.72,9.72,0,0,1-3.64,3.67,10.68,10.68,0,0,1-10.36,0,9.69,9.69,0,0,1-3.63-3.67,11.25,11.25,0,0,1,0-10.65Zm2,9.57a7.64,7.64,0,0,0,2.82,2.93,8.22,8.22,0,0,0,8,0A7.64,7.64,0,0,0,242,559a9.26,9.26,0,0,0,0-8.49,7.84,7.84,0,0,0-13.68,0,9.26,9.26,0,0,0,0,8.49Z"/><path class="cls-1" d="M251.48,561a5.76,5.76,0,0,0,1.87,1.46A5.84,5.84,0,0,0,256,563a4.43,4.43,0,0,0,2.9-.9,3.15,3.15,0,0,0,1.1-2.58,3,3,0,0,0-.69-2,5.36,5.36,0,0,0-1.81-1.33,20.34,20.34,0,0,0-2.4-1,19.83,19.83,0,0,1-2.71-1.14,6.07,6.07,0,0,1-2.11-1.76,4.66,4.66,0,0,1-.82-2.86,4.44,4.44,0,0,1,.84-2.78,5.16,5.16,0,0,1,2.22-1.65,7.58,7.58,0,0,1,2.88-.56,7.8,7.8,0,0,1,3,.56,7.62,7.62,0,0,1,2.28,1.46,6.76,6.76,0,0,1,1.46,2l-1.85,1.12a6.88,6.88,0,0,0-1.94-2.24,5.17,5.17,0,0,0-3.22-.94,4.16,4.16,0,0,0-2.45.71,2.44,2.44,0,0,0-1,2.17,2.83,2.83,0,0,0,.64,1.91,4.78,4.78,0,0,0,1.72,1.23q1.08.46,2.28.9a19.75,19.75,0,0,1,2.94,1.29,6.76,6.76,0,0,1,2.2,1.83,4.41,4.41,0,0,1,.84,2.77,5.63,5.63,0,0,1-.82,3,5.51,5.51,0,0,1-2.26,2,7.23,7.23,0,0,1-3.33.74,8.19,8.19,0,0,1-3.59-.74,6.87,6.87,0,0,1-2.47-1.89,7.15,7.15,0,0,1-1.34-2.41l1.81-1A7.37,7.37,0,0,0,251.48,561Z"/><path class="cls-1" d="M273.35,544.87V547h-8.69v-2.1ZM270.12,538v26.66h-2.23V538Z"/><path class="cls-1" d="M276.74,549.42a9.81,9.81,0,0,1,3.64-3.65,10.75,10.75,0,0,1,10.36,0,9.78,9.78,0,0,1,3.63,3.65,11.25,11.25,0,0,1,0,10.65,9.69,9.69,0,0,1-3.63,3.67,10.68,10.68,0,0,1-10.36,0,9.72,9.72,0,0,1-3.64-3.67,11.32,11.32,0,0,1,0-10.65Zm2,9.57a7.64,7.64,0,0,0,2.82,2.93,8.22,8.22,0,0,0,8,0A7.64,7.64,0,0,0,292.4,559a9.26,9.26,0,0,0,0-8.49,7.84,7.84,0,0,0-13.68,0,9.26,9.26,0,0,0,0,8.49Z"/><path class="cls-1" d="M313.25,549.25a9.08,9.08,0,0,1,3.46-3.57,9.49,9.49,0,0,1,4.8-1.24,7.56,7.56,0,0,1,3.44.77,7.77,7.77,0,0,1,2.64,2.17,10.36,10.36,0,0,1,1.7,3.29,14.21,14.21,0,0,1,0,8.17,10.36,10.36,0,0,1-1.7,3.29A7.66,7.66,0,0,1,325,564.3a7.56,7.56,0,0,1-3.44.78,9.5,9.5,0,0,1-4.8-1.25,9.08,9.08,0,0,1-3.46-3.57,12.39,12.39,0,0,1,0-11Zm2,9.91A7.38,7.38,0,0,0,318,562a7.47,7.47,0,0,0,3.79,1,6.1,6.1,0,0,0,2.64-.6,7,7,0,0,0,2.26-1.72,8.63,8.63,0,0,0,1.57-2.63,9.48,9.48,0,0,0,0-6.53,8.63,8.63,0,0,0-1.57-2.63,7.19,7.19,0,0,0-2.26-1.72,6.1,6.1,0,0,0-2.64-.6,7.66,7.66,0,0,0-3.79,1,7.18,7.18,0,0,0-2.75,2.82,8.93,8.93,0,0,0-1,4.43A8.76,8.76,0,0,0,315.27,559.16Zm15.82-28v33.54h-2.23V531.11Z"/><path class="cls-1" d="M340.38,563.74a9.18,9.18,0,0,1-3.24-3.67,11.74,11.74,0,0,1-1.19-5.36,11.93,11.93,0,0,1,.69-4.15,9.57,9.57,0,0,1,2-3.24,8.69,8.69,0,0,1,3-2.13,9.62,9.62,0,0,1,3.85-.75,9,9,0,0,1,4.75,1.24,8.59,8.59,0,0,1,3.18,3.44,11,11,0,0,1,1.14,5.12c0,.17,0,.37,0,.58a3.13,3.13,0,0,1-.07.49H337.37v-1.93h15.4l-.95,1.33a4.85,4.85,0,0,0,.19-.6,2.34,2.34,0,0,0,.11-.69,7.52,7.52,0,0,0-.86-3.61,6.36,6.36,0,0,0-2.36-2.49,6.5,6.5,0,0,0-3.44-.91,7.36,7.36,0,0,0-2.95.58,6.76,6.76,0,0,0-2.28,1.66,7.45,7.45,0,0,0-1.48,2.58,11.24,11.24,0,0,0,.36,7.74,7,7,0,0,0,2.5,2.95,6.73,6.73,0,0,0,3.76,1.05,7.76,7.76,0,0,0,4-1,9.1,9.1,0,0,0,3-3.1l1.81,1.16a11.21,11.21,0,0,1-3.9,3.81,10.47,10.47,0,0,1-5.18,1.23A8.52,8.52,0,0,1,340.38,563.74Z"/><path class="cls-1" d="M384.07,549.81a19.45,19.45,0,0,0,1.81-2.17,10.31,10.31,0,0,0,1.22-2.32,7.64,7.64,0,0,0,.45-2.65,6.27,6.27,0,0,0-.41-2.23,6.54,6.54,0,0,0-1.2-2.05,6.1,6.1,0,0,0-2-1.5,6.72,6.72,0,0,0-9.14,3.46,11.11,11.11,0,0,0-.86,4.52h-2.36a13.21,13.21,0,0,1,1.14-5.66,8.74,8.74,0,0,1,3.26-3.78,9.18,9.18,0,0,1,5.06-1.36,9.51,9.51,0,0,1,4.06.8,8.24,8.24,0,0,1,2.8,2.08,8.82,8.82,0,0,1,2.12,5.64,9.41,9.41,0,0,1-1.18,4.6,17.87,17.87,0,0,1-2.9,3.91l-11,11.31h15.61v2.24H370Z"/><path class="cls-1" d="M395.29,543.47a16.38,16.38,0,0,1,2.13-4.93,10.43,10.43,0,0,1,3.33-3.26,8.16,8.16,0,0,1,4.3-1.16,8.38,8.38,0,0,1,3.53.75A9.17,9.17,0,0,1,411.5,537a13.16,13.16,0,0,1,2.2,3.31,18.21,18.21,0,0,1,1.37,4.28,25,25,0,0,1,.48,5,24.15,24.15,0,0,1-.74,6.12,16.12,16.12,0,0,1-2.12,4.93,10.69,10.69,0,0,1-3.31,3.26,8.15,8.15,0,0,1-4.33,1.17,8.34,8.34,0,0,1-3.52-.76,9.21,9.21,0,0,1-2.93-2.15,12.87,12.87,0,0,1-2.19-3.31,18.21,18.21,0,0,1-1.37-4.28,25,25,0,0,1-.48-5A24.24,24.24,0,0,1,395.29,543.47Zm2,10.36a18.93,18.93,0,0,0,1,3.63A10.82,10.82,0,0,0,400,560.3a7.31,7.31,0,0,0,2.28,1.87,5.82,5.82,0,0,0,2.77.67,6,6,0,0,0,3.4-1A8.36,8.36,0,0,0,411,559a15.07,15.07,0,0,0,1.61-4.21,23.16,23.16,0,0,0,.56-5.2,23.92,23.92,0,0,0-.36-4.24,18.42,18.42,0,0,0-1-3.63,10.53,10.53,0,0,0-1.67-2.84,7.7,7.7,0,0,0-2.28-1.87,5.83,5.83,0,0,0-2.78-.67,6,6,0,0,0-3.39,1,8.35,8.35,0,0,0-2.56,2.82,15.07,15.07,0,0,0-1.61,4.21,22.62,22.62,0,0,0-.56,5.21A23.81,23.81,0,0,0,397.29,553.83Z"/><path class="cls-1" d="M432.53,549.81a19.45,19.45,0,0,0,1.81-2.17,10.31,10.31,0,0,0,1.22-2.32,7.64,7.64,0,0,0,.45-2.65,6.27,6.27,0,0,0-.41-2.23,6.54,6.54,0,0,0-1.2-2.05,6.1,6.1,0,0,0-2-1.5,7.44,7.44,0,0,0-6.69.47,6.82,6.82,0,0,0-2.45,3,11.11,11.11,0,0,0-.86,4.52H420a13.21,13.21,0,0,1,1.14-5.66,8.81,8.81,0,0,1,3.26-3.78,9.18,9.18,0,0,1,5.06-1.36,9.51,9.51,0,0,1,4.06.8,8.24,8.24,0,0,1,2.8,2.08,8.82,8.82,0,0,1,2.12,5.64,9.41,9.41,0,0,1-1.18,4.6,17.87,17.87,0,0,1-2.9,3.91l-11,11.31H439v2.24H418.47Z"/><path class="cls-1" d="M443.75,543.47a16.38,16.38,0,0,1,2.13-4.93,10.43,10.43,0,0,1,3.33-3.26,8.16,8.16,0,0,1,4.3-1.16,8.34,8.34,0,0,1,3.53.75A9.17,9.17,0,0,1,460,537a12.9,12.9,0,0,1,2.2,3.31,18.21,18.21,0,0,1,1.37,4.28,25,25,0,0,1,.48,5,24.62,24.62,0,0,1-.73,6.12,16.38,16.38,0,0,1-2.13,4.93,10.69,10.69,0,0,1-3.31,3.26,8.15,8.15,0,0,1-4.33,1.17,8.34,8.34,0,0,1-3.52-.76,9.21,9.21,0,0,1-2.93-2.15,12.87,12.87,0,0,1-2.19-3.31,18.21,18.21,0,0,1-1.37-4.28,25,25,0,0,1-.48-5A24.71,24.71,0,0,1,443.75,543.47Zm2,10.36a18.23,18.23,0,0,0,1,3.63,10.53,10.53,0,0,0,1.67,2.84,7.31,7.31,0,0,0,2.28,1.87,5.82,5.82,0,0,0,2.77.67,6,6,0,0,0,3.4-1,8.36,8.36,0,0,0,2.56-2.82,15.07,15.07,0,0,0,1.61-4.21,23.16,23.16,0,0,0,.56-5.2,23.92,23.92,0,0,0-.36-4.24,18.42,18.42,0,0,0-1-3.63,10.53,10.53,0,0,0-1.67-2.84,7.7,7.7,0,0,0-2.28-1.87,5.83,5.83,0,0,0-2.78-.67,6,6,0,0,0-3.39,1,8.35,8.35,0,0,0-2.56,2.82,15.07,15.07,0,0,0-1.61,4.21,22.62,22.62,0,0,0-.56,5.21A23.81,23.81,0,0,0,445.75,553.83Z"/><path class="cls-1" d="M245.66,232.79a26,26,0,0,1,7.87-8.47,36.53,36.53,0,0,1,10.74-5,41.16,41.16,0,0,1,23.21,0,36.41,36.41,0,0,1,10.74,5,26.18,26.18,0,0,1,7.88,8.47,25.77,25.77,0,0,1,.4,23.35,25.92,25.92,0,0,1-7.28,8.61,35,35,0,0,1-10.6,5.53A40.45,40.45,0,0,1,276,272.22a41.69,41.69,0,0,1-12.74-1.94,33,33,0,0,1-10.61-5.53,28.19,28.19,0,0,1-7.27-8.61A22.89,22.89,0,0,1,242.66,245,23.82,23.82,0,0,1,245.66,232.79ZM250,186.56A26.68,26.68,0,0,1,260.8,178,36.55,36.55,0,0,1,276,175a35.62,35.62,0,0,1,11.47,1.8A33.07,33.07,0,0,1,297,181.7a22.43,22.43,0,0,1,6.47,7.67,23.65,23.65,0,0,1-.2,20.88,24.06,24.06,0,0,1-6.74,7.73,29.27,29.27,0,0,1-9.54,4.67,40.59,40.59,0,0,1-22.15,0,30.08,30.08,0,0,1-9.6-4.67,22.92,22.92,0,0,1-6.74-7.73A22.35,22.35,0,0,1,246,199.51,21.41,21.41,0,0,1,250,186.56Zm13.68,63.31a12.86,12.86,0,0,0,5.2,4.8,15.12,15.12,0,0,0,7,1.67,14.66,14.66,0,0,0,6.93-1.67,13.48,13.48,0,0,0,5.21-4.8,14,14,0,0,0,2-7.67,13,13,0,0,0-2-7.14,15.11,15.11,0,0,0-5.21-5,13.45,13.45,0,0,0-6.93-1.87,13.63,13.63,0,0,0-7,1.93,15.23,15.23,0,0,0-5.2,5,12.72,12.72,0,0,0-1.94,6.93A14.61,14.61,0,0,0,263.67,249.87Zm2.2-42.43a11.24,11.24,0,0,0,4.2,4.21,11.89,11.89,0,0,0,5.94,1.46,11.54,11.54,0,0,0,5.8-1.46,11.19,11.19,0,0,0,4.21-4.21,11.84,11.84,0,0,0,1.6-6.07,12.64,12.64,0,0,0-1.47-6.07A10.7,10.7,0,0,0,282,191a12.1,12.1,0,0,0-6.13-1.53,11.72,11.72,0,0,0-6.07,1.53,10.8,10.8,0,0,0-4.07,4.27,13,13,0,0,0-1.47,6.21A11.5,11.5,0,0,0,265.87,207.44Z"/><path class="cls-1" d="M332.84,270.08l30-35.22,3.47-1.2a17.57,17.57,0,0,1-6.87,4.67,26,26,0,0,1-8.34,1.2,26.5,26.5,0,0,1-10.41-2.2A29.61,29.61,0,0,1,325,221.59a30.73,30.73,0,0,1-2.4-12.34q0-11.08,4.87-18.68A31.72,31.72,0,0,1,340.58,179a43.31,43.31,0,0,1,36.36,0,32.22,32.22,0,0,1,13.14,11.61q4.94,7.6,4.93,18.68a29.86,29.86,0,0,1-2.8,12.8,64.16,64.16,0,0,1-6.67,11.21l-28.28,36.82ZM373.67,200a16.28,16.28,0,0,0-6.14-6.13,18.65,18.65,0,0,0-17.61,0,16.21,16.21,0,0,0-6.14,6.13,18.31,18.31,0,0,0-2.26,9.28,18.09,18.09,0,0,0,2.26,9.07,16.58,16.58,0,0,0,6.14,6.27,18.21,18.21,0,0,0,17.61,0,16.66,16.66,0,0,0,6.14-6.27,18.09,18.09,0,0,0,2.27-9.07A18.31,18.31,0,0,0,373.67,200Z"/><path class="cls-1" d="M415.91,213.41l-6.8,13.93-5.46-1.28,4.9-14.43Z"/><path class="cls-1" d="M426.21,217.64l12.54-14.71,1.45-.5a7.27,7.27,0,0,1-2.87,1.95,10.69,10.69,0,0,1-3.48.5,11,11,0,0,1-4.35-.92,12.37,12.37,0,0,1-6.57-6.57,12.8,12.8,0,0,1-1-5.16,14.15,14.15,0,0,1,2-7.8,13.28,13.28,0,0,1,5.48-4.85,18.11,18.11,0,0,1,15.19,0,13.62,13.62,0,0,1,5.49,4.85,14.08,14.08,0,0,1,2.06,7.8,12.48,12.48,0,0,1-1.17,5.35,26.07,26.07,0,0,1-2.79,4.68l-11.81,15.38Zm17.05-29.28a6.77,6.77,0,0,0-2.56-2.56,7.8,7.8,0,0,0-7.35,0,6.79,6.79,0,0,0-2.57,2.56,7.65,7.65,0,0,0-.95,3.87,7.54,7.54,0,0,0,.95,3.79,6.88,6.88,0,0,0,2.57,2.62,7.58,7.58,0,0,0,7.35,0,6.86,6.86,0,0,0,2.56-2.62,7.43,7.43,0,0,0,.95-3.79A7.55,7.55,0,0,0,443.26,188.36Z"/><path class="cls-1" d="M458.23,189.89a19.8,19.8,0,0,1,3.2-6.38,13.86,13.86,0,0,1,5-4,14.72,14.72,0,0,1,6.41-1.39,15.43,15.43,0,0,1,5.32.89,13.83,13.83,0,0,1,4.37,2.62,15.2,15.2,0,0,1,3.29,4.21,21.6,21.6,0,0,1,2,5.57,31,31,0,0,1,.7,6.88,29.65,29.65,0,0,1-1.09,8.36,18.75,18.75,0,0,1-3.14,6.38,13.77,13.77,0,0,1-5,4,14.9,14.9,0,0,1-6.49,1.39,14.57,14.57,0,0,1-5.18-.89,13.84,13.84,0,0,1-4.38-2.62,15.3,15.3,0,0,1-3.34-4.2,21.75,21.75,0,0,1-2.09-5.6,30,30,0,0,1-.73-6.86A28.26,28.26,0,0,1,458.23,189.89Zm7,12.77a16.85,16.85,0,0,0,1,3.59,10.67,10.67,0,0,0,1.64,2.76,7.07,7.07,0,0,0,2.17,1.78,5.84,5.84,0,0,0,2.71.61,5.93,5.93,0,0,0,3.26-.94,7.82,7.82,0,0,0,2.5-2.71,14.3,14.3,0,0,0,1.57-4.15,25.09,25.09,0,0,0,.52-5.35,27.26,27.26,0,0,0-.33-4.4,15.13,15.13,0,0,0-1-3.59,11.63,11.63,0,0,0-1.64-2.73,7.1,7.1,0,0,0-2.18-1.79,5.78,5.78,0,0,0-2.67-.64,6.06,6.06,0,0,0-3.29,1,7.54,7.54,0,0,0-2.51,2.7,15.33,15.33,0,0,0-1.56,4.15,23.75,23.75,0,0,0-.56,5.35A24.11,24.11,0,0,0,465.25,202.66Z"/><path class="cls-1" d="M53.22,198.34v43.82H43.89V198.34Zm-3.57,43.82V233.9h8.89a18.72,18.72,0,0,0,5.39-.75,12.2,12.2,0,0,0,4.47-2.44,11.34,11.34,0,0,0,3.07-4.29,15.82,15.82,0,0,0,1.1-6.17,16.08,16.08,0,0,0-1.1-6.2,11,11,0,0,0-3.07-4.29,12.43,12.43,0,0,0-4.47-2.41,18.72,18.72,0,0,0-5.39-.75H49.65v-8.26h9.21a27.61,27.61,0,0,1,9.39,1.53,20.82,20.82,0,0,1,7.29,4.42,19.36,19.36,0,0,1,4.66,6.91,25.94,25.94,0,0,1,0,18.1,19.36,19.36,0,0,1-4.66,6.91,20.67,20.67,0,0,1-7.29,4.42,27.61,27.61,0,0,1-9.39,1.53Z"/><path class="cls-1" d="M97.54,198.34v43.82H88.78V198.34Zm-3,0H116.7V206H94.54Zm0,16.78h20.91v7.51H94.54Zm0,19.4H116.7v7.64H94.54Z"/><path class="cls-1" d="M127,211.33a5.37,5.37,0,0,1,7.38,0,4.88,4.88,0,0,1,1.44,3.54,5.22,5.22,0,0,1-1.44,3.63,5.14,5.14,0,0,1-7.38,0,5.22,5.22,0,0,1-1.44-3.63A4.88,4.88,0,0,1,127,211.33Zm0,23.44a5.29,5.29,0,0,1,7.38,0,5.16,5.16,0,0,1,1.44,3.7,5,5,0,0,1-1.44,3.53,5.19,5.19,0,0,1-7.38,0,5,5,0,0,1-1.44-3.53A5.16,5.16,0,0,1,127,234.77Z"/><path class="cls-1" d="M52.91,360.8v43.82h-9V360.8Zm-3.51,0h8.7A20.65,20.65,0,0,1,67,362.52a12.52,12.52,0,0,1,5.57,4.88,15.43,15.43,0,0,1,0,14.87A12.22,12.22,0,0,1,67,387.06a21.3,21.3,0,0,1-8.86,1.66H49.4v-7.64h8.7a11.05,11.05,0,0,0,4.07-.69,5.48,5.48,0,0,0,2.66-2.06,7.15,7.15,0,0,0,0-7,5.71,5.71,0,0,0-2.66-2.16,10.09,10.09,0,0,0-4.07-.76H49.4Z"/><path class="cls-1" d="M80.7,373.54a21.26,21.26,0,0,1,4.92-7.2A23.27,23.27,0,0,1,93,361.58a25.33,25.33,0,0,1,18.35,0,23.52,23.52,0,0,1,7.38,4.76,20.37,20.37,0,0,1,4.89,7.2,24.26,24.26,0,0,1,1.69,9.17,24.6,24.6,0,0,1-1.69,9.17,21.36,21.36,0,0,1-4.82,7.32,22.12,22.12,0,0,1-7.36,4.82,24.19,24.19,0,0,1-9.23,1.73A24.5,24.5,0,0,1,92.82,404a21.79,21.79,0,0,1-7.33-4.82,22,22,0,0,1-4.82-7.29,23.93,23.93,0,0,1-1.72-9.2A23.53,23.53,0,0,1,80.7,373.54Zm8.77,14.9A13.38,13.38,0,0,0,92.29,393a12.88,12.88,0,0,0,4.31,3,14.12,14.12,0,0,0,5.58,1.06,13.74,13.74,0,0,0,5.44-1.06,12.82,12.82,0,0,0,4.32-3,13.6,13.6,0,0,0,2.82-4.54,16,16,0,0,0,1-5.76,17,17,0,0,0-.94-5.73,12.56,12.56,0,0,0-2.75-4.57,12.9,12.9,0,0,0-4.29-3,15.14,15.14,0,0,0-11.18,0,12.88,12.88,0,0,0-4.31,3A13.35,13.35,0,0,0,89.47,377a17,17,0,0,0,0,11.49Z"/><path class="cls-1" d="M141.24,360.8v43.82h-9V360.8Zm-3.51,0H147a20.08,20.08,0,0,1,8.86,1.78,13.87,13.87,0,0,1,5.63,19.5,13.09,13.09,0,0,1-5.63,4.88,20.37,20.37,0,0,1-8.86,1.76h-9.27v-7.14h8.71a10,10,0,0,0,4.07-.78,5.92,5.92,0,0,0,2.66-2.22,6.5,6.5,0,0,0,.9-3.51,6.65,6.65,0,0,0-.9-3.54,5.68,5.68,0,0,0-2.66-2.22,10.3,10.3,0,0,0-4.07-.75h-8.71Zm14.09,23.41,14.27,20.41H155.33l-13-20.41Z"/><path class="cls-1" d="M172.48,373.79a5.38,5.38,0,0,1,7.39,0,4.87,4.87,0,0,1,1.44,3.53,5.23,5.23,0,0,1-1.44,3.64,5.16,5.16,0,0,1-7.39,0,5.23,5.23,0,0,1-1.44-3.64A4.87,4.87,0,0,1,172.48,373.79Zm0,23.44a5.3,5.3,0,0,1,7.39,0,5.13,5.13,0,0,1,1.44,3.7,5,5,0,0,1-1.44,3.53,5.2,5.2,0,0,1-7.39,0,5,5,0,0,1-1.44-3.53A5.13,5.13,0,0,1,172.48,397.23Z"/><path class="cls-1" d="M298.06,415.78a29.06,29.06,0,0,1-8.2,9.94,34.93,34.93,0,0,1-11.48,5.8,46.37,46.37,0,0,1-13.14,1.87,54.52,54.52,0,0,1-15.34-2A46.67,46.67,0,0,1,238,426.12a57.38,57.38,0,0,1-9.14-7.14L238,404a35.71,35.71,0,0,0,7.07,6.13,36.32,36.32,0,0,0,8.2,4.14,25.12,25.12,0,0,0,8.34,1.47,24.6,24.6,0,0,0,10.07-1.87,14.1,14.1,0,0,0,6.41-5.34,15.67,15.67,0,0,0,2.2-8.54,13.57,13.57,0,0,0-2.67-8.53,16.73,16.73,0,0,0-6.94-5.27,23.13,23.13,0,0,0-9.07-1.81,61.23,61.23,0,0,0-8.07.54,48,48,0,0,0-8.41,1.93A52.37,52.37,0,0,0,236,391l12.81-52.56h51v16.81H263l-5.6,18.94a27.19,27.19,0,0,1,7.54-2.6,43.81,43.81,0,0,1,8.07-.73,27.31,27.31,0,0,1,14,3.73,27.74,27.74,0,0,1,10.27,10.61,33.06,33.06,0,0,1,3.87,16.48A30.64,30.64,0,0,1,298.06,415.78Z"/><path class="cls-1" d="M323.41,431.52l30-35.22,3.47-1.2a17.64,17.64,0,0,1-6.87,4.67,26,26,0,0,1-8.34,1.2,26.67,26.67,0,0,1-10.41-2.2A29.67,29.67,0,0,1,315.54,383a30.7,30.7,0,0,1-2.4-12.34q0-11.07,4.87-18.67a31.6,31.6,0,0,1,13.14-11.61,43.29,43.29,0,0,1,36.35,0A32.22,32.22,0,0,1,380.64,352q4.94,7.61,4.94,18.67a29.87,29.87,0,0,1-2.8,12.81,64.53,64.53,0,0,1-6.67,11.21l-28.29,36.82Zm40.82-70.11a16.28,16.28,0,0,0-6.13-6.14,18.72,18.72,0,0,0-17.61,0,16.3,16.3,0,0,0-6.14,6.14,19.68,19.68,0,0,0,0,18.35,16.73,16.73,0,0,0,6.14,6.27,18.28,18.28,0,0,0,17.61,0,16.7,16.7,0,0,0,6.13-6.27,19.68,19.68,0,0,0,0-18.35Z"/><path class="cls-1" d="M406.47,374.85l-6.8,13.93-5.46-1.28,4.91-14.44Z"/><path class="cls-1" d="M416.78,379.08l12.54-14.71,1.45-.5a7.27,7.27,0,0,1-2.87,1.95,10.76,10.76,0,0,1-3.49.5,10.93,10.93,0,0,1-4.34-.92,12.28,12.28,0,0,1-3.88-2.59,12.51,12.51,0,0,1-2.7-4,12.8,12.8,0,0,1-1-5.16,14.24,14.24,0,0,1,2-7.8A13.3,13.3,0,0,1,420,341a18.11,18.11,0,0,1,15.19,0,13.46,13.46,0,0,1,5.48,4.85,14,14,0,0,1,2.07,7.8,12.48,12.48,0,0,1-1.17,5.35,26.79,26.79,0,0,1-2.79,4.68L427,379.08Zm17.05-29.28a6.84,6.84,0,0,0-2.56-2.56,7.82,7.82,0,0,0-7.36,0,6.77,6.77,0,0,0-2.56,2.56,7.65,7.65,0,0,0-1,3.87,7.56,7.56,0,0,0,1,3.79,6.86,6.86,0,0,0,2.56,2.62,7.6,7.6,0,0,0,7.36,0,6.93,6.93,0,0,0,2.56-2.62,7.56,7.56,0,0,0,.95-3.79A7.65,7.65,0,0,0,433.83,349.8Z"/><path class="cls-1" d="M448.79,351.33A19.51,19.51,0,0,1,452,345a13.78,13.78,0,0,1,5-4,14.54,14.54,0,0,1,6.4-1.39,15.48,15.48,0,0,1,5.33.89,13.83,13.83,0,0,1,4.37,2.62,15,15,0,0,1,3.29,4.21,21.6,21.6,0,0,1,2,5.57,31,31,0,0,1,.7,6.88,29.65,29.65,0,0,1-1.09,8.36,18.59,18.59,0,0,1-3.15,6.38,13.66,13.66,0,0,1-5,4,14.91,14.91,0,0,1-6.5,1.39,14.64,14.64,0,0,1-5.18-.89,14,14,0,0,1-4.37-2.62,15.33,15.33,0,0,1-3.35-4.2,22.05,22.05,0,0,1-2.09-5.61,30.45,30.45,0,0,1-.72-6.85A28.6,28.6,0,0,1,448.79,351.33Zm7,12.76a17.37,17.37,0,0,0,1,3.6,11,11,0,0,0,1.65,2.76,7,7,0,0,0,2.17,1.78,6.16,6.16,0,0,0,6-.34,7.81,7.81,0,0,0,2.51-2.7,14,14,0,0,0,1.56-4.15,25.06,25.06,0,0,0,.53-5.35,27.17,27.17,0,0,0-.33-4.4,15.47,15.47,0,0,0-1-3.59,11.93,11.93,0,0,0-1.65-2.74,7.18,7.18,0,0,0-2.17-1.78,5.67,5.67,0,0,0-2.68-.64,6,6,0,0,0-3.28.95,7.45,7.45,0,0,0-2.51,2.7,15.33,15.33,0,0,0-1.56,4.15,23.75,23.75,0,0,0-.56,5.35A24.87,24.87,0,0,0,455.81,364.09Z"/><line class="cls-1" x1="229" y1="163.35" x2="499" y2="285.84"/><path class="cls-2" d="M229,169.87l7.23,3.27,19.67,8.93L285,195.26l35.49,16.1L359.33,229l39.1,17.74,36.46,16.54,30.92,14L488,287.38l6.91,3.14a33.13,33.13,0,0,0,3.6,1.63,3.68,3.68,0,0,1,.45.21s.05-2.2.05-1.91c0-1.54,0-3.07,0-4.61s0-3.07,0-4.61a8.33,8.33,0,0,0-.05-1.9l-7.23-3.28-19.67-8.93L443,253.93l-35.49-16.1L368.67,220.2l-39.1-17.74-36.46-16.54-30.92-14L240,161.81l-6.91-3.14a33.13,33.13,0,0,0-3.6-1.63c-.16,0-.3-.14-.45-.2,0,0-.05,2.19-.05,1.9,0,1.54,0,3.07,0,4.61s0,3.07,0,4.61a8.44,8.44,0,0,0,.05,1.91Z"/><line class="cls-1" x1="499" y1="163.35" x2="229" y2="285.84"/><path class="cls-2" d="M499,156.84l-7.23,3.27L472.1,169,443,182.23l-35.49,16.1L368.67,216l-39.1,17.74-36.46,16.54-30.92,14L240,274.35l-6.91,3.14a38.85,38.85,0,0,0-3.6,1.63c-.14.08-.3.14-.45.21a14.41,14.41,0,0,0-.05,1.9c0,1.54,0,3.08,0,4.61s0,3.07,0,4.61a14.18,14.18,0,0,1,.05,1.91l7.23-3.28,19.67-8.93L285,267l35.49-16.1,38.86-17.63,39.1-17.74L434.89,199l30.92-14L488,174.84,495,171.7a36.39,36.39,0,0,0,3.6-1.63,3.62,3.62,0,0,1,.45-.2,14.59,14.59,0,0,0,.05-1.91c0-1.54,0-3.07,0-4.61s0-3.07,0-4.61a14.07,14.07,0,0,1-.05-1.9Z"/><rect class="cls-1" y="522.99" width="10" height="24.86"/><rect class="cls-1" x="27.5" y="600.1" width="25" height="10"/><polygon class="cls-1" points="0 60.6 10 60.6 10 53.1 17.5 53.1 17.5 43.1 0 43.1 0 60.6"/><polygon class="cls-1" points="10 592.6 0 592.6 0 610.1 17.5 610.1 17.5 600.1 10 600.1 10 592.6"/><rect class="cls-1" y="557.79" width="10" height="24.86"/><rect class="cls-1" y="488.18" width="10" height="24.86"/><rect class="cls-1" x="132.5" y="600.1" width="25" height="10"/><rect class="cls-1" x="237.5" y="600.1" width="25" height="10"/><rect class="cls-1" x="202.5" y="600.1" width="25" height="10"/><rect class="cls-1" x="62.5" y="43.1" width="25" height="10"/><rect class="cls-1" x="62.5" y="600.1" width="25" height="10"/><rect class="cls-1" x="97.5" y="600.1" width="25" height="10"/><rect class="cls-1" x="167.5" y="600.1" width="25" height="10"/><rect class="cls-1" y="105.34" width="10" height="24.86"/><rect class="cls-1" y="140.15" width="10" height="24.86"/><rect class="cls-1" y="174.95" width="10" height="24.86"/><rect class="cls-1" x="97.5" y="43.1" width="11" height="10"/><rect class="cls-1" y="453.38" width="10" height="24.86"/><rect class="cls-1" y="70.54" width="10" height="24.86"/><rect class="cls-1" y="209.75" width="10" height="24.86"/><rect class="cls-1" y="383.77" width="10" height="24.86"/><rect class="cls-1" y="244.56" width="10" height="24.86"/><rect class="cls-1" y="418.58" width="10" height="24.86"/><rect class="cls-1" y="348.97" width="10" height="24.86"/><rect class="cls-1" y="279.36" width="10" height="24.86"/><rect class="cls-1" y="314.17" width="10" height="24.86"/><rect class="cls-1" x="27.5" y="43.1" width="25" height="10"/><rect class="cls-1" x="525" y="314.17" width="10" height="24.86"/><rect class="cls-1" x="525" y="279.36" width="10" height="24.86"/><rect class="cls-1" x="525" y="348.97" width="10" height="24.86"/><rect class="cls-1" x="525" y="244.56" width="10" height="24.86"/><rect class="cls-1" x="525" y="418.58" width="10" height="24.86"/><rect class="cls-1" x="272.5" y="600.1" width="25" height="10"/><rect class="cls-1" x="525" y="174.95" width="10" height="24.86"/><rect class="cls-1" x="525" y="209.75" width="10" height="24.86"/><rect class="cls-1" x="525" y="70.54" width="10" height="24.86"/><polygon class="cls-1" points="517.5 43.1 517.5 53.1 525 53.1 525 60.6 535 60.6 535 43.1 517.5 43.1"/><rect class="cls-1" x="525" y="105.34" width="10" height="24.86"/><rect class="cls-1" x="525" y="453.38" width="10" height="24.86"/><rect class="cls-1" x="525" y="140.15" width="10" height="24.86"/><rect class="cls-1" x="525" y="383.77" width="10" height="24.86"/><rect class="cls-1" x="412.5" y="600.1" width="25" height="10"/><rect class="cls-1" x="426.5" y="43.1" width="11" height="10"/><rect class="cls-1" x="447.5" y="600.1" width="25" height="10"/><rect class="cls-1" x="377.5" y="600.1" width="25" height="10"/><rect class="cls-1" x="525" y="488.18" width="10" height="24.86"/><rect class="cls-1" x="342.5" y="600.1" width="25" height="10"/><rect class="cls-1" x="307.5" y="600.1" width="25" height="10"/><rect class="cls-1" x="525" y="557.79" width="10" height="24.86"/><polygon class="cls-1" points="525 600.1 517.5 600.1 517.5 610.1 535 610.1 535 592.6 525 592.6 525 600.1"/><rect class="cls-1" x="525" y="522.99" width="10" height="24.86"/><rect class="cls-1" x="447.5" y="43.1" width="25" height="10"/><rect class="cls-1" x="482.5" y="600.1" width="25" height="10"/><rect class="cls-1" x="482.5" y="43.1" width="25" height="10"/><path class="cls-1" d="M149,15.46V58.92h-3.42V15.46Zm-1.62,0h8.13A18.33,18.33,0,0,1,163.1,17a12.32,12.32,0,0,1,5.24,4.28,11.7,11.7,0,0,1,1.93,6.83,11.73,11.73,0,0,1-1.93,6.8,12.24,12.24,0,0,1-5.24,4.31,18.17,18.17,0,0,1-7.55,1.49h-8.13v-3h8.13a15,15,0,0,0,5.9-1.08,8.86,8.86,0,0,0,4-3.23,9.28,9.28,0,0,0,1.42-5.25,8.58,8.58,0,0,0-5.46-8.47,14.66,14.66,0,0,0-5.84-1.09h-8.13Zm9.38,22.72,14.83,20.74h-4.22L153,38.18Z"/><path class="cls-1" d="M177.22,28.34a21.58,21.58,0,0,1,4.53-7.08,20.76,20.76,0,0,1,6.86-4.68,22.85,22.85,0,0,1,17.2,0,20.76,20.76,0,0,1,6.86,4.68,21.42,21.42,0,0,1,4.53,7.08,23.69,23.69,0,0,1,1.62,8.85A23.64,23.64,0,0,1,217.2,46a21.32,21.32,0,0,1-4.53,7.08,20.79,20.79,0,0,1-6.86,4.69,23,23,0,0,1-17.2,0,20.79,20.79,0,0,1-6.86-4.69A21.48,21.48,0,0,1,177.22,46a23.64,23.64,0,0,1-1.61-8.84A23.69,23.69,0,0,1,177.22,28.34Zm3.32,16.39a18,18,0,0,0,3.76,6A16.84,16.84,0,0,0,190,54.66a19.21,19.21,0,0,0,14.4,0,16.43,16.43,0,0,0,5.68-3.94,18.21,18.21,0,0,0,3.73-6,20.71,20.71,0,0,0,1.33-7.54,20.76,20.76,0,0,0-1.33-7.55,18.32,18.32,0,0,0-3.73-6,16.57,16.57,0,0,0-5.68-3.94,19.21,19.21,0,0,0-14.4,0,17,17,0,0,0-5.71,3.94,18.06,18.06,0,0,0-3.76,6,20.76,20.76,0,0,0-1.33,7.55A20.71,20.71,0,0,0,180.54,44.73Z"/><path class="cls-1" d="M230.11,15.46V58.92H226.7V15.46Zm-1.55,43.46V55.5h9.94a19.84,19.84,0,0,0,7.38-1.3,15.92,15.92,0,0,0,9.28-9.47,21.26,21.26,0,0,0,1.28-7.54,21.32,21.32,0,0,0-1.28-7.55,16,16,0,0,0-3.63-5.77,16.2,16.2,0,0,0-5.65-3.69,19.84,19.84,0,0,0-7.38-1.31h-9.94V15.46h9.94A23.5,23.5,0,0,1,247.19,17a19.09,19.09,0,0,1,6.73,4.44,20,20,0,0,1,4.38,6.89,24.4,24.4,0,0,1,1.55,8.85A24.35,24.35,0,0,1,258.3,46a20,20,0,0,1-4.38,6.89,19.09,19.09,0,0,1-6.73,4.44,23.3,23.3,0,0,1-8.69,1.56Z"/><path class="cls-1" d="M267.05,11.17l-1.74-1.24L275.12,0l3,1.68Zm4,4.29V58.92h-3.42V15.46Z"/><path class="cls-1" d="M278.48,15.46h30.17L283.07,55.69h24.58v3.23H277.23l25.58-40.23H278.48Z"/><path class="cls-1" d="M318.27,15.46V58.92h-3.42V15.46Z"/><path class="cls-1" d="M327.71,28.34a21.26,21.26,0,0,1,4.53-7.08,20.66,20.66,0,0,1,6.86-4.68,22.83,22.83,0,0,1,17.19,0,20.66,20.66,0,0,1,6.86,4.68,21.44,21.44,0,0,1,4.54,7.08,23.89,23.89,0,0,1,1.61,8.85A23.84,23.84,0,0,1,367.69,46a21.34,21.34,0,0,1-4.54,7.08,20.69,20.69,0,0,1-6.86,4.69,23,23,0,0,1-17.19,0,20.69,20.69,0,0,1-6.86-4.69A21.16,21.16,0,0,1,327.71,46a23.64,23.64,0,0,1-1.62-8.84A23.69,23.69,0,0,1,327.71,28.34ZM331,44.73a18.1,18.1,0,0,0,3.75,6,16.93,16.93,0,0,0,5.71,3.94,19.24,19.24,0,0,0,14.41,0,16.62,16.62,0,0,0,5.68-3.94,18.35,18.35,0,0,0,3.72-6,20.71,20.71,0,0,0,1.34-7.54,20.76,20.76,0,0,0-1.34-7.55,18.46,18.46,0,0,0-3.72-6,16.76,16.76,0,0,0-5.68-3.94,19.24,19.24,0,0,0-14.41,0,17.08,17.08,0,0,0-5.71,3.94,18.2,18.2,0,0,0-3.75,6,20.76,20.76,0,0,0-1.34,7.55A20.71,20.71,0,0,0,331,44.73Z"/><path class="cls-1" d="M119.11,95.16a18.16,18.16,0,0,0,3.76,6,16.55,16.55,0,0,0,5.58,3.88,17.33,17.33,0,0,0,6.86,1.37,20.69,20.69,0,0,0,5.65-.72,16.57,16.57,0,0,0,4.63-2.05,16.82,16.82,0,0,0,3.69-3.19V105a18.67,18.67,0,0,1-6,3.63,22.9,22.9,0,0,1-8,1.21,21.23,21.23,0,0,1-8.38-1.64,20.5,20.5,0,0,1-6.73-4.63,21,21,0,0,1-4.5-7.07,25.48,25.48,0,0,1,0-17.88,21,21,0,0,1,4.5-7.08,20.5,20.5,0,0,1,6.73-4.63,21.23,21.23,0,0,1,8.38-1.64,22.9,22.9,0,0,1,8,1.21,19,19,0,0,1,6,3.63v4.53a16.7,16.7,0,0,0-8.38-5.21,21.36,21.36,0,0,0-5.59-.68,17.32,17.32,0,0,0-6.86,1.36A16.69,16.69,0,0,0,122.87,74a18.27,18.27,0,0,0-3.76,6,21.94,21.94,0,0,0,0,15.21Z"/><path class="cls-1" d="M158.22,78.71a21.44,21.44,0,0,1,4.54-7.08A20.66,20.66,0,0,1,169.62,67a22.83,22.83,0,0,1,17.19,0,20.66,20.66,0,0,1,6.86,4.68,21.26,21.26,0,0,1,4.53,7.08,25,25,0,0,1,0,17.69,21.26,21.26,0,0,1-4.53,7.08,20.69,20.69,0,0,1-6.86,4.69,23,23,0,0,1-17.19,0,20.69,20.69,0,0,1-6.86-4.69,21.44,21.44,0,0,1-4.54-7.08,25.1,25.1,0,0,1,0-17.69Zm3.32,16.39a18.12,18.12,0,0,0,3.76,6A16.84,16.84,0,0,0,171,105a19.24,19.24,0,0,0,14.41,0,16.62,16.62,0,0,0,5.68-3.94,18.35,18.35,0,0,0,3.72-6,21.91,21.91,0,0,0,0-15.09,18.46,18.46,0,0,0-3.72-6,16.76,16.76,0,0,0-5.68-3.94,19.24,19.24,0,0,0-14.41,0A17,17,0,0,0,165.3,74a18.22,18.22,0,0,0-3.76,6,22.07,22.07,0,0,0,0,15.09Z"/><path class="cls-1" d="M208.88,109.29h-3.41l5-45.14,17.38,33.4,17.38-33.4,5,45.14h-3.41l-3.73-34.4-15.27,29.37L212.61,74.89Z"/><path class="cls-1" d="M261.9,65.83v43.46h-3.41V65.83Zm-1.49,0h8.26A16.54,16.54,0,0,1,276,67.38a11.9,11.9,0,0,1,6.92,11.3A12,12,0,0,1,276,90a16.54,16.54,0,0,1-7.29,1.55h-8.26V88.3h8.26a13.39,13.39,0,0,0,5.58-1.09A8.43,8.43,0,0,0,278,84a10.92,10.92,0,0,0,0-10.59,8.51,8.51,0,0,0-3.79-3.23,13.55,13.55,0,0,0-5.58-1.08h-8.26Z"/><path class="cls-1" d="M294.18,65.83v40.23h17.94v3.23H290.77V65.83Z"/><path class="cls-1" d="M321.62,65.83v43.46h-3.41V65.83Zm-1.61,0h21.54v3.23H320Zm0,18h20.3v3.23H320Zm0,22.23h21.54v3.23H320Z"/><path class="cls-1" d="M347,65.83h26.26v3.23H361.85v40.23h-3.41V69.06H347Z"/><path class="cls-1" d="M375.38,78.71a21.44,21.44,0,0,1,4.54-7.08A20.66,20.66,0,0,1,386.78,67,22.83,22.83,0,0,1,404,67a20.66,20.66,0,0,1,6.86,4.68,21.44,21.44,0,0,1,4.54,7.08,25.1,25.1,0,0,1,0,17.69,21.44,21.44,0,0,1-4.54,7.08,20.69,20.69,0,0,1-6.86,4.69,23,23,0,0,1-17.19,0,20.69,20.69,0,0,1-6.86-4.69,21.44,21.44,0,0,1-4.54-7.08,25.1,25.1,0,0,1,0-17.69Zm3.33,16.39a18.1,18.1,0,0,0,3.75,6,16.93,16.93,0,0,0,5.71,3.94,19.24,19.24,0,0,0,14.41,0,16.62,16.62,0,0,0,5.68-3.94,18.35,18.35,0,0,0,3.72-6A21.91,21.91,0,0,0,412,80a18.46,18.46,0,0,0-3.72-6,16.76,16.76,0,0,0-5.68-3.94,19.24,19.24,0,0,0-14.41,0A17.08,17.08,0,0,0,382.46,74a18.2,18.2,0,0,0-3.75,6,21.91,21.91,0,0,0,0,15.09Z"/></g></g></svg>