<svg xmlns="http://www.w3.org/2000/svg" viewBox="0 0 535 493.1"><defs><style>.cls-1{fill:#fff;}.cls-2{fill:#f9eded;}</style></defs><g id="Capa_2" data-name="Capa 2"><g id="Capa_1-2" data-name="Capa 1"><path class="cls-1" d="M245.66,232.79a26,26,0,0,1,7.87-8.47,36.53,36.53,0,0,1,10.74-5,41.16,41.16,0,0,1,23.21,0,36.41,36.41,0,0,1,10.74,5,26.18,26.18,0,0,1,7.88,8.47,25.77,25.77,0,0,1,.4,23.35,25.92,25.92,0,0,1-7.28,8.61,35,35,0,0,1-10.6,5.53A40.45,40.45,0,0,1,276,272.22a41.69,41.69,0,0,1-12.74-1.94,33,33,0,0,1-10.61-5.53,28.19,28.19,0,0,1-7.27-8.61A22.89,22.89,0,0,1,242.66,245,23.82,23.82,0,0,1,245.66,232.79ZM250,186.56A26.68,26.68,0,0,1,260.8,178,36.55,36.55,0,0,1,276,175a35.62,35.62,0,0,1,11.47,1.8A33.07,33.07,0,0,1,297,181.7a22.43,22.43,0,0,1,6.47,7.67,23.65,23.65,0,0,1-.2,20.88,24.06,24.06,0,0,1-6.74,7.73,29.27,29.27,0,0,1-9.54,4.67,40.59,40.59,0,0,1-22.15,0,30.08,30.08,0,0,1-9.6-4.67,22.92,22.92,0,0,1-6.74-7.73A22.35,22.35,0,0,1,246,199.51,21.41,21.41,0,0,1,250,186.56Zm13.68,63.31a12.86,12.86,0,0,0,5.2,4.8,15.12,15.12,0,0,0,7,1.67,14.66,14.66,0,0,0,6.93-1.67,13.48,13.48,0,0,0,5.21-4.8,14,14,0,0,0,2-7.67,13,13,0,0,0-2-7.14,15.11,15.11,0,0,0-5.21-5,13.45,13.45,0,0,0-6.93-1.87,13.63,13.63,0,0,0-7,1.93,15.23,15.23,0,0,0-5.2,5,12.72,12.72,0,0,0-1.94,6.93A14.61,14.61,0,0,0,263.67,249.87Zm2.2-42.43a11.24,11.24,0,0,0,4.2,4.21,11.89,11.89,0,0,0,5.94,1.46,11.54,11.54,0,0,0,5.8-1.46,11.19,11.19,0,0,0,4.21-4.21,11.84,11.84,0,0,0,1.6-6.07,12.64,12.64,0,0,0-1.47-6.07A10.7,10.7,0,0,0,282,191a12.1,12.1,0,0,0-6.13-1.53,11.72,11.72,0,0,0-6.07,1.53,10.8,10.8,0,0,0-4.07,4.27,13,13,0,0,0-1.47,6.21A11.5,11.5,0,0,0,265.87,207.44Z"/><path class="cls-1" d="M332.84,270.08l30-35.22,3.47-1.2a17.57,17.57,0,0,1-6.87,4.67,26,26,0,0,1-8.34,1.2,26.5,26.5,0,0,1-10.41-2.2A29.61,29.61,0,0,1,325,221.59a30.73,30.73,0,0,1-2.4-12.34q0-11.08,4.87-18.68A31.72,31.72,0,0,1,340.58,179a43.31,43.31,0,0,1,36.36,0,32.22,32.22,0,0,1,13.14,11.61q4.94,7.6,4.93,18.68a29.86,29.86,0,0,1-2.8,12.8,64.16,64.16,0,0,1-6.67,11.21l-28.28,36.82ZM373.67,200a16.28,16.28,0,0,0-6.14-6.13,18.65,18.65,0,0,0-17.61,0,16.21,16.21,0,0,0-6.14,6.13,18.31,18.31,0,0,0-2.26,9.28,18.09,18.09,0,0,0,2.26,9.07,16.58,16.58,0,0,0,6.14,6.27,18.21,18.21,0,0,0,17.61,0,16.66,16.66,0,0,0,6.14-6.27,18.09,18.09,0,0,0,2.27-9.07A18.31,18.31,0,0,0,373.67,200Z"/><path class="cls-1" d="M415.91,213.41l-6.8,13.93-5.46-1.28,4.9-14.43Z"/><path class="cls-1" d="M426.21,217.64l12.54-14.71,1.45-.5a7.27,7.27,0,0,1-2.87,1.95,10.69,10.69,0,0,1-3.48.5,11,11,0,0,1-4.35-.92,12.37,12.37,0,0,1-6.57-6.57,12.8,12.8,0,0,1-1-5.16,14.15,14.15,0,0,1,2-7.8,13.28,13.28,0,0,1,5.48-4.85,18.11,18.11,0,0,1,15.19,0,13.62,13.62,0,0,1,5.49,4.85,14.08,14.08,0,0,1,2.06,7.8,12.48,12.48,0,0,1-1.17,5.35,26.07,26.07,0,0,1-2.79,4.68l-11.81,15.38Zm17.05-29.28a6.77,6.77,0,0,0-2.56-2.56,7.8,7.8,0,0,0-7.35,0,6.79,6.79,0,0,0-2.57,2.56,7.65,7.65,0,0,0-.95,3.87,7.54,7.54,0,0,0,.95,3.79,6.88,6.88,0,0,0,2.57,2.62,7.58,7.58,0,0,0,7.35,0,6.86,6.86,0,0,0,2.56-2.62,7.43,7.43,0,0,0,.95-3.79A7.55,7.55,0,0,0,443.26,188.36Z"/><path class="cls-1" d="M458.23,189.89a19.8,19.8,0,0,1,3.2-6.38,13.86,13.86,0,0,1,5-4,14.72,14.72,0,0,1,6.41-1.39,15.43,15.43,0,0,1,5.32.89,13.83,13.83,0,0,1,4.37,2.62,15.2,15.2,0,0,1,3.29,4.21,21.6,21.6,0,0,1,2,5.57,31,31,0,0,1,.7,6.88,29.65,29.65,0,0,1-1.09,8.36,18.75,18.75,0,0,1-3.14,6.38,13.77,13.77,0,0,1-5,4,14.9,14.9,0,0,1-6.49,1.39,14.57,14.57,0,0,1-5.18-.89,13.84,13.84,0,0,1-4.38-2.62,15.3,15.3,0,0,1-3.34-4.2,21.75,21.75,0,0,1-2.09-5.6,30,30,0,0,1-.73-6.86A28.26,28.26,0,0,1,458.23,189.89Zm7,12.77a16.85,16.85,0,0,0,1,3.59,10.67,10.67,0,0,0,1.64,2.76,7.07,7.07,0,0,0,2.17,1.78,5.84,5.84,0,0,0,2.71.61,5.93,5.93,0,0,0,3.26-.94,7.82,7.82,0,0,0,2.5-2.71,14.3,14.3,0,0,0,1.57-4.15,25.09,25.09,0,0,0,.52-5.35,27.26,27.26,0,0,0-.33-4.4,15.13,15.13,0,0,0-1-3.59,11.63,11.63,0,0,0-1.64-2.73,7.1,7.1,0,0,0-2.18-1.79,5.78,5.78,0,0,0-2.67-.64,6.06,6.06,0,0,0-3.29,1,7.54,7.54,0,0,0-2.51,2.7,15.33,15.33,0,0,0-1.56,4.15,23.75,23.75,0,0,0-.56,5.35A24.11,24.11,0,0,0,465.25,202.66Z"/><path class="cls-1" d="M53.22,198.34v43.82H43.89V198.34Zm-3.57,43.82V233.9h8.89a18.72,18.72,0,0,0,5.39-.75,12.2,12.2,0,0,0,4.47-2.44,11.34,11.34,0,0,0,3.07-4.29,15.82,15.82,0,0,0,1.1-6.17,16.08,16.08,0,0,0-1.1-6.2,11,11,0,0,0-3.07-4.29,12.43,12.43,0,0,0-4.47-2.41,18.72,18.72,0,0,0-5.39-.75H49.65v-8.26h9.21a27.61,27.61,0,0,1,9.39,1.53,20.82,20.82,0,0,1,7.29,4.42,19.36,19.36,0,0,1,4.66,6.91,25.94,25.94,0,0,1,0,18.1,19.36,19.36,0,0,1-4.66,6.91,20.67,20.67,0,0,1-7.29,4.42,27.61,27.61,0,0,1-9.39,1.53Z"/><path class="cls-1" d="M97.54,198.34v43.82H88.78V198.34Zm-3,0H116.7V206H94.54Zm0,16.78h20.91v7.51H94.54Zm0,19.4H116.7v7.64H94.54Z"/><path class="cls-1" d="M127,211.33a5.37,5.37,0,0,1,7.38,0,4.88,4.88,0,0,1,1.44,3.54,5.22,5.22,0,0,1-1.44,3.63,5.14,5.14,0,0,1-7.38,0,5.22,5.22,0,0,1-1.44-3.63A4.88,4.88,0,0,1,127,211.33Zm0,23.44a5.29,5.29,0,0,1,7.38,0,5.16,5.16,0,0,1,1.44,3.7,5,5,0,0,1-1.44,3.53,5.19,5.19,0,0,1-7.38,0,5,5,0,0,1-1.44-3.53A5.16,5.16,0,0,1,127,234.77Z"/><path class="cls-1" d="M52.91,360.8v43.82h-9V360.8Zm-3.51,0h8.7A20.65,20.65,0,0,1,67,362.52a12.52,12.52,0,0,1,5.57,4.88,15.43,15.43,0,0,1,0,14.87A12.22,12.22,0,0,1,67,387.06a21.3,21.3,0,0,1-8.86,1.66H49.4v-7.64h8.7a11.05,11.05,0,0,0,4.07-.69,5.48,5.48,0,0,0,2.66-2.06,7.15,7.15,0,0,0,0-7,5.71,5.71,0,0,0-2.66-2.16,10.09,10.09,0,0,0-4.07-.76H49.4Z"/><path class="cls-1" d="M80.7,373.54a21.26,21.26,0,0,1,4.92-7.2A23.27,23.27,0,0,1,93,361.58a25.33,25.33,0,0,1,18.35,0,23.52,23.52,0,0,1,7.38,4.76,20.37,20.37,0,0,1,4.89,7.2,24.26,24.26,0,0,1,1.69,9.17,24.6,24.6,0,0,1-1.69,9.17,21.36,21.36,0,0,1-4.82,7.32,22.12,22.12,0,0,1-7.36,4.82,24.19,24.19,0,0,1-9.23,1.73A24.5,24.5,0,0,1,92.82,404a21.79,21.79,0,0,1-7.33-4.82,22,22,0,0,1-4.82-7.29,23.93,23.93,0,0,1-1.72-9.2A23.53,23.53,0,0,1,80.7,373.54Zm8.77,14.9A13.38,13.38,0,0,0,92.29,393a12.88,12.88,0,0,0,4.31,3,14.12,14.12,0,0,0,5.58,1.06,13.74,13.74,0,0,0,5.44-1.06,12.82,12.82,0,0,0,4.32-3,13.6,13.6,0,0,0,2.82-4.54,16,16,0,0,0,1-5.76,17,17,0,0,0-.94-5.73,12.56,12.56,0,0,0-2.75-4.57,12.9,12.9,0,0,0-4.29-3,15.14,15.14,0,0,0-11.18,0,12.88,12.88,0,0,0-4.31,3A13.35,13.35,0,0,0,89.47,377a17,17,0,0,0,0,11.49Z"/><path class="cls-1" d="M141.24,360.8v43.82h-9V360.8Zm-3.51,0H147a20.08,20.08,0,0,1,8.86,1.78,13.87,13.87,0,0,1,5.63,19.5,13.09,13.09,0,0,1-5.63,4.88,20.37,20.37,0,0,1-8.86,1.76h-9.27v-7.14h8.71a10,10,0,0,0,4.07-.78,5.92,5.92,0,0,0,2.66-2.22,6.5,6.5,0,0,0,.9-3.51,6.65,6.65,0,0,0-.9-3.54,5.68,5.68,0,0,0-2.66-2.22,10.3,10.3,0,0,0-4.07-.75h-8.71Zm14.09,23.41,14.27,20.41H155.33l-13-20.41Z"/><path class="cls-1" d="M172.48,373.79a5.38,5.38,0,0,1,7.39,0,4.87,4.87,0,0,1,1.44,3.53,5.23,5.23,0,0,1-1.44,3.64,5.16,5.16,0,0,1-7.39,0,5.23,5.23,0,0,1-1.44-3.64A4.87,4.87,0,0,1,172.48,373.79Zm0,23.44a5.3,5.3,0,0,1,7.39,0,5.13,5.13,0,0,1,1.44,3.7,5,5,0,0,1-1.44,3.53,5.2,5.2,0,0,1-7.39,0,5,5,0,0,1-1.44-3.53A5.13,5.13,0,0,1,172.48,397.23Z"/><path class="cls-1" d="M290.92,338.66,261,373.89l-3.34,1.2a16.49,16.49,0,0,1,6.81-4.74,27.4,27.4,0,0,1,8.4-1.13,25.72,25.72,0,0,1,10.48,2.2,30.2,30.2,0,0,1,9.07,6.2,31,31,0,0,1,6.54,9.54,30,30,0,0,1,2.46,12.34q0,11.07-4.93,18.68a31.7,31.7,0,0,1-13.14,11.54,43.91,43.91,0,0,1-36.36,0,31.16,31.16,0,0,1-13.14-11.54Q229,410.58,229,399.5a31.38,31.38,0,0,1,2.67-13,52.41,52.41,0,0,1,6.67-11l28.28-36.83Zm-40.69,70.11a16.07,16.07,0,0,0,6.21,6.14,18.58,18.58,0,0,0,17.54,0,16.3,16.3,0,0,0,6.14-6.14,19.65,19.65,0,0,0,0-18.34,16.66,16.66,0,0,0-6.14-6.27,18.21,18.21,0,0,0-17.61,0,16.58,16.58,0,0,0-6.14,6.27,19.65,19.65,0,0,0,0,18.34Z"/><path class="cls-1" d="M324.81,431.52l30-35.22,3.47-1.2a17.64,17.64,0,0,1-6.87,4.67,26,26,0,0,1-8.34,1.2,26.67,26.67,0,0,1-10.41-2.2A29.67,29.67,0,0,1,316.94,383a30.7,30.7,0,0,1-2.4-12.34q0-11.07,4.87-18.67a31.6,31.6,0,0,1,13.14-11.61,43.29,43.29,0,0,1,36.35,0A32.22,32.22,0,0,1,382,352q4.93,7.61,4.94,18.67a29.87,29.87,0,0,1-2.8,12.81,64.53,64.53,0,0,1-6.67,11.21l-28.29,36.82Zm40.82-70.11a16.28,16.28,0,0,0-6.13-6.14,18.72,18.72,0,0,0-17.61,0,16.3,16.3,0,0,0-6.14,6.14,19.68,19.68,0,0,0,0,18.35,16.73,16.73,0,0,0,6.14,6.27,18.28,18.28,0,0,0,17.61,0,16.7,16.7,0,0,0,6.13-6.27,19.68,19.68,0,0,0,0-18.35Z"/><path class="cls-1" d="M407.87,374.85l-6.8,13.93-5.46-1.28,4.91-14.44Z"/><path class="cls-1" d="M418.18,379.08l12.54-14.71,1.45-.5a7.27,7.27,0,0,1-2.87,1.95,10.76,10.76,0,0,1-3.49.5,11,11,0,0,1-4.34-.92,12.28,12.28,0,0,1-3.88-2.59,12.51,12.51,0,0,1-2.7-4,12.8,12.8,0,0,1-1-5.16,14.24,14.24,0,0,1,2-7.8,13.3,13.3,0,0,1,5.49-4.85,18.11,18.11,0,0,1,15.19,0,13.46,13.46,0,0,1,5.48,4.85,14,14,0,0,1,2.07,7.8A12.48,12.48,0,0,1,443,359a26.79,26.79,0,0,1-2.79,4.68l-11.81,15.38Zm17.05-29.28a6.77,6.77,0,0,0-2.56-2.56,7.82,7.82,0,0,0-7.36,0,6.77,6.77,0,0,0-2.56,2.56,7.65,7.65,0,0,0-.95,3.87,7.56,7.56,0,0,0,.95,3.79,6.86,6.86,0,0,0,2.56,2.62,7.6,7.6,0,0,0,7.36,0,6.86,6.86,0,0,0,2.56-2.62,7.56,7.56,0,0,0,.95-3.79A7.65,7.65,0,0,0,435.23,349.8Z"/><path class="cls-1" d="M450.19,351.33A19.51,19.51,0,0,1,453.4,345a13.78,13.78,0,0,1,5-4,14.54,14.54,0,0,1,6.4-1.39,15.44,15.44,0,0,1,5.33.89,13.83,13.83,0,0,1,4.37,2.62,15,15,0,0,1,3.29,4.21,21.6,21.6,0,0,1,2,5.57,31,31,0,0,1,.7,6.88,29.65,29.65,0,0,1-1.09,8.36,18.59,18.59,0,0,1-3.15,6.38,13.66,13.66,0,0,1-5,4,14.91,14.91,0,0,1-6.5,1.39,14.64,14.64,0,0,1-5.18-.89,14,14,0,0,1-4.37-2.62,15.33,15.33,0,0,1-3.35-4.2,22.05,22.05,0,0,1-2.09-5.61,30.45,30.45,0,0,1-.72-6.85A28.6,28.6,0,0,1,450.19,351.33Zm7,12.76a18,18,0,0,0,1,3.6,11,11,0,0,0,1.65,2.76,7,7,0,0,0,2.17,1.78,6.16,6.16,0,0,0,6-.34,7.81,7.81,0,0,0,2.51-2.7,14,14,0,0,0,1.56-4.15,25.06,25.06,0,0,0,.53-5.35,27.17,27.17,0,0,0-.33-4.4,15.47,15.47,0,0,0-1-3.59,11.93,11.93,0,0,0-1.65-2.74,7.06,7.06,0,0,0-2.17-1.78,5.67,5.67,0,0,0-2.68-.64,6,6,0,0,0-3.28.95,7.45,7.45,0,0,0-2.51,2.7,15.33,15.33,0,0,0-1.56,4.15,23.75,23.75,0,0,0-.56,5.35A24.87,24.87,0,0,0,457.21,364.09Z"/><line class="cls-1" x1="229" y1="163.35" x2="499" y2="285.84"/><path class="cls-2" d="M229,169.87l7.23,3.27,19.67,8.93L285,195.26l35.49,16.1L359.33,229l39.1,17.74,36.46,16.54,30.92,14L488,287.38l6.91,3.14a33.13,33.13,0,0,0,3.6,1.63,3.68,3.68,0,0,1,.45.21s.05-2.2.05-1.91c0-1.54,0-3.07,0-4.61s0-3.07,0-4.61a8.33,8.33,0,0,0-.05-1.9l-7.23-3.28-19.67-8.93L443,253.93l-35.49-16.1L368.67,220.2l-39.1-17.74-36.46-16.54-30.92-14L240,161.81l-6.91-3.14a33.13,33.13,0,0,0-3.6-1.63c-.16,0-.3-.14-.45-.2,0,0-.05,2.19-.05,1.9,0,1.54,0,3.07,0,4.61s0,3.07,0,4.61a8.44,8.44,0,0,0,.05,1.91Z"/><line class="cls-1" x1="499" y1="163.35" x2="229" y2="285.84"/><path class="cls-2" d="M499,156.84l-7.23,3.27L472.1,169,443,182.23l-35.49,16.1L368.67,216l-39.1,17.74-36.46,16.54-30.92,14L240,274.35l-6.91,3.14a38.85,38.85,0,0,0-3.6,1.63c-.14.08-.3.14-.45.21a14.41,14.41,0,0,0-.05,1.9c0,1.54,0,3.08,0,4.61s0,3.07,0,4.61a14.18,14.18,0,0,1,.05,1.91l7.23-3.28,19.67-8.93L285,267l35.49-16.1,38.86-17.63,39.1-17.74L434.89,199l30.92-14L488,174.84,495,171.7a36.39,36.39,0,0,0,3.6-1.63,3.62,3.62,0,0,1,.45-.2,14.59,14.59,0,0,0,.05-1.91c0-1.54,0-3.07,0-4.61s0-3.07,0-4.61a14.07,14.07,0,0,1-.05-1.9Z"/><rect class="cls-1" y="423.96" width="10" height="19.73"/><rect class="cls-1" x="27.5" y="485.16" width="25" height="7.94"/><polygon class="cls-1" points="0 56.98 10 56.98 10 51.03 17.5 51.03 17.5 43.1 0 43.1 0 56.98"/><polygon class="cls-1" points="10 479.21 0 479.21 0 493.1 17.5 493.1 17.5 485.16 10 485.16 10 479.21"/><rect class="cls-1" y="451.58" width="10" height="19.73"/><rect class="cls-1" y="396.34" width="10" height="19.73"/><rect class="cls-1" x="132.5" y="485.16" width="25" height="7.94"/><rect class="cls-1" x="237.5" y="485.16" width="25" height="7.94"/><rect class="cls-1" x="202.5" y="485.16" width="25" height="7.94"/><rect class="cls-1" x="62.5" y="43.1" width="25" height="7.94"/><rect class="cls-1" x="62.5" y="485.16" width="25" height="7.94"/><rect class="cls-1" x="97.5" y="485.16" width="25" height="7.94"/><rect class="cls-1" x="167.5" y="485.16" width="25" height="7.94"/><rect class="cls-1" y="92.5" width="10" height="19.73"/><rect class="cls-1" y="120.12" width="10" height="19.73"/><rect class="cls-1" y="147.74" width="10" height="19.73"/><rect class="cls-1" x="97.5" y="43.1" width="11" height="7.94"/><rect class="cls-1" y="368.72" width="10" height="19.73"/><rect class="cls-1" y="64.88" width="10" height="19.73"/><rect class="cls-1" y="175.36" width="10" height="19.73"/><rect class="cls-1" y="313.47" width="10" height="19.73"/><rect class="cls-1" y="202.99" width="10" height="19.73"/><rect class="cls-1" y="341.1" width="10" height="19.73"/><rect class="cls-1" y="285.85" width="10" height="19.73"/><rect class="cls-1" y="230.61" width="10" height="19.73"/><rect class="cls-1" y="258.23" width="10" height="19.73"/><rect class="cls-1" x="27.5" y="43.1" width="25" height="7.94"/><rect class="cls-1" x="525" y="258.23" width="10" height="19.73"/><rect class="cls-1" x="525" y="230.61" width="10" height="19.73"/><rect class="cls-1" x="525" y="285.85" width="10" height="19.73"/><rect class="cls-1" x="525" y="202.99" width="10" height="19.73"/><rect class="cls-1" x="525" y="341.1" width="10" height="19.73"/><rect class="cls-1" x="272.5" y="485.16" width="25" height="7.94"/><rect class="cls-1" x="525" y="147.74" width="10" height="19.73"/><rect class="cls-1" x="525" y="175.36" width="10" height="19.73"/><rect class="cls-1" x="525" y="64.88" width="10" height="19.73"/><polygon class="cls-1" points="517.5 43.1 517.5 51.03 525 51.03 525 56.98 535 56.98 535 43.1 517.5 43.1"/><rect class="cls-1" x="525" y="92.5" width="10" height="19.73"/><rect class="cls-1" x="525" y="368.72" width="10" height="19.73"/><rect class="cls-1" x="525" y="120.12" width="10" height="19.73"/><rect class="cls-1" x="525" y="313.47" width="10" height="19.73"/><rect class="cls-1" x="412.5" y="485.16" width="25" height="7.94"/><rect class="cls-1" x="426.5" y="43.1" width="11" height="7.94"/><rect class="cls-1" x="447.5" y="485.16" width="25" height="7.94"/><rect class="cls-1" x="377.5" y="485.16" width="25" height="7.94"/><rect class="cls-1" x="525" y="396.34" width="10" height="19.73"/><rect class="cls-1" x="342.5" y="485.16" width="25" height="7.94"/><rect class="cls-1" x="307.5" y="485.16" width="25" height="7.94"/><rect class="cls-1" x="525" y="451.58" width="10" height="19.73"/><polygon class="cls-1" points="525 485.16 517.5 485.16 517.5 493.1 535 493.1 535 479.21 525 479.21 525 485.16"/><rect class="cls-1" x="525" y="423.96" width="10" height="19.73"/><rect class="cls-1" x="447.5" y="43.1" width="25" height="7.94"/><rect class="cls-1" x="482.5" y="485.16" width="25" height="7.94"/><rect class="cls-1" x="482.5" y="43.1" width="25" height="7.94"/><path class="cls-1" d="M149,15.46V58.92h-3.42V15.46Zm-1.62,0h8.13A18.33,18.33,0,0,1,163.1,17a12.32,12.32,0,0,1,5.24,4.28,11.7,11.7,0,0,1,1.93,6.83,11.73,11.73,0,0,1-1.93,6.8,12.24,12.24,0,0,1-5.24,4.31,18.17,18.17,0,0,1-7.55,1.49h-8.13v-3h8.13a15,15,0,0,0,5.9-1.08,8.86,8.86,0,0,0,4-3.23,9.28,9.28,0,0,0,1.42-5.25,8.58,8.58,0,0,0-5.46-8.47,14.66,14.66,0,0,0-5.84-1.09h-8.13Zm9.38,22.72,14.83,20.74h-4.22L153,38.18Z"/><path class="cls-1" d="M177.22,28.34a21.58,21.58,0,0,1,4.53-7.08,20.76,20.76,0,0,1,6.86-4.68,22.85,22.85,0,0,1,17.2,0,20.76,20.76,0,0,1,6.86,4.68,21.42,21.42,0,0,1,4.53,7.08,23.69,23.69,0,0,1,1.62,8.85A23.64,23.64,0,0,1,217.2,46a21.32,21.32,0,0,1-4.53,7.08,20.79,20.79,0,0,1-6.86,4.69,23,23,0,0,1-17.2,0,20.79,20.79,0,0,1-6.86-4.69A21.48,21.48,0,0,1,177.22,46a23.64,23.64,0,0,1-1.61-8.84A23.69,23.69,0,0,1,177.22,28.34Zm3.32,16.39a18,18,0,0,0,3.76,6A16.84,16.84,0,0,0,190,54.66a19.21,19.21,0,0,0,14.4,0,16.43,16.43,0,0,0,5.68-3.94,18.21,18.21,0,0,0,3.73-6,20.71,20.71,0,0,0,1.33-7.54,20.76,20.76,0,0,0-1.33-7.55,18.32,18.32,0,0,0-3.73-6,16.57,16.57,0,0,0-5.68-3.94,19.21,19.21,0,0,0-14.4,0,17,17,0,0,0-5.71,3.94,18.06,18.06,0,0,0-3.76,6,20.76,20.76,0,0,0-1.33,7.55A20.71,20.71,0,0,0,180.54,44.73Z"/><path class="cls-1" d="M230.11,15.46V58.92H226.7V15.46Zm-1.55,43.46V55.5h9.94a19.84,19.84,0,0,0,7.38-1.3,15.92,15.92,0,0,0,9.28-9.47,21.26,21.26,0,0,0,1.28-7.54,21.32,21.32,0,0,0-1.28-7.55,16,16,0,0,0-3.63-5.77,16.2,16.2,0,0,0-5.65-3.69,19.84,19.84,0,0,0-7.38-1.31h-9.94V15.46h9.94A23.5,23.5,0,0,1,247.19,17a19.09,19.09,0,0,1,6.73,4.44,20,20,0,0,1,4.38,6.89,24.4,24.4,0,0,1,1.55,8.85A24.35,24.35,0,0,1,258.3,46a20,20,0,0,1-4.38,6.89,19.09,19.09,0,0,1-6.73,4.44,23.3,23.3,0,0,1-8.69,1.56Z"/><path class="cls-1" d="M267.05,11.17l-1.74-1.24L275.12,0l3,1.68Zm4,4.29V58.92h-3.42V15.46Z"/><path class="cls-1" d="M278.48,15.46h30.17L283.07,55.69h24.58v3.23H277.23l25.58-40.23H278.48Z"/><path class="cls-1" d="M318.27,15.46V58.92h-3.42V15.46Z"/><path class="cls-1" d="M327.71,28.34a21.26,21.26,0,0,1,4.53-7.08,20.66,20.66,0,0,1,6.86-4.68,22.83,22.83,0,0,1,17.19,0,20.66,20.66,0,0,1,6.86,4.68,21.44,21.44,0,0,1,4.54,7.08,23.89,23.89,0,0,1,1.61,8.85A23.84,23.84,0,0,1,367.69,46a21.34,21.34,0,0,1-4.54,7.08,20.69,20.69,0,0,1-6.86,4.69,23,23,0,0,1-17.19,0,20.69,20.69,0,0,1-6.86-4.69A21.16,21.16,0,0,1,327.71,46a23.64,23.64,0,0,1-1.62-8.84A23.69,23.69,0,0,1,327.71,28.34ZM331,44.73a18.1,18.1,0,0,0,3.75,6,16.93,16.93,0,0,0,5.71,3.94,19.24,19.24,0,0,0,14.41,0,16.62,16.62,0,0,0,5.68-3.94,18.35,18.35,0,0,0,3.72-6,20.71,20.71,0,0,0,1.34-7.54,20.76,20.76,0,0,0-1.34-7.55,18.46,18.46,0,0,0-3.72-6,16.76,16.76,0,0,0-5.68-3.94,19.24,19.24,0,0,0-14.41,0,17.08,17.08,0,0,0-5.71,3.94,18.2,18.2,0,0,0-3.75,6,20.76,20.76,0,0,0-1.34,7.55A20.71,20.71,0,0,0,331,44.73Z"/><path class="cls-1" d="M119.11,95.16a18.16,18.16,0,0,0,3.76,6,16.55,16.55,0,0,0,5.58,3.88,17.33,17.33,0,0,0,6.86,1.37,20.69,20.69,0,0,0,5.65-.72,16.57,16.57,0,0,0,4.63-2.05,16.82,16.82,0,0,0,3.69-3.19V105a18.67,18.67,0,0,1-6,3.63,22.9,22.9,0,0,1-8,1.21,21.23,21.23,0,0,1-8.38-1.64,20.5,20.5,0,0,1-6.73-4.63,21,21,0,0,1-4.5-7.07,25.48,25.48,0,0,1,0-17.88,21,21,0,0,1,4.5-7.08,20.5,20.5,0,0,1,6.73-4.63,21.23,21.23,0,0,1,8.38-1.64,22.9,22.9,0,0,1,8,1.21,19,19,0,0,1,6,3.63v4.53a16.7,16.7,0,0,0-8.38-5.21,21.36,21.36,0,0,0-5.59-.68,17.32,17.32,0,0,0-6.86,1.36A16.69,16.69,0,0,0,122.87,74a18.27,18.27,0,0,0-3.76,6,21.94,21.94,0,0,0,0,15.21Z"/><path class="cls-1" d="M158.22,78.71a21.44,21.44,0,0,1,4.54-7.08A20.66,20.66,0,0,1,169.62,67a22.83,22.83,0,0,1,17.19,0,20.66,20.66,0,0,1,6.86,4.68,21.26,21.26,0,0,1,4.53,7.08,25,25,0,0,1,0,17.69,21.26,21.26,0,0,1-4.53,7.08,20.69,20.69,0,0,1-6.86,4.69,23,23,0,0,1-17.19,0,20.69,20.69,0,0,1-6.86-4.69,21.44,21.44,0,0,1-4.54-7.08,25.1,25.1,0,0,1,0-17.69Zm3.32,16.39a18.12,18.12,0,0,0,3.76,6A16.84,16.84,0,0,0,171,105a19.24,19.24,0,0,0,14.41,0,16.62,16.62,0,0,0,5.68-3.94,18.35,18.35,0,0,0,3.72-6,21.91,21.91,0,0,0,0-15.09,18.46,18.46,0,0,0-3.72-6,16.76,16.76,0,0,0-5.68-3.94,19.24,19.24,0,0,0-14.41,0A17,17,0,0,0,165.3,74a18.22,18.22,0,0,0-3.76,6,22.07,22.07,0,0,0,0,15.09Z"/><path class="cls-1" d="M208.88,109.29h-3.41l5-45.14,17.38,33.4,17.38-33.4,5,45.14h-3.41l-3.73-34.4-15.27,29.37L212.61,74.89Z"/><path class="cls-1" d="M261.9,65.83v43.46h-3.41V65.83Zm-1.49,0h8.26A16.54,16.54,0,0,1,276,67.38a11.9,11.9,0,0,1,6.92,11.3A12,12,0,0,1,276,90a16.54,16.54,0,0,1-7.29,1.55h-8.26V88.3h8.26a13.39,13.39,0,0,0,5.58-1.09A8.43,8.43,0,0,0,278,84a10.92,10.92,0,0,0,0-10.59,8.51,8.51,0,0,0-3.79-3.23,13.55,13.55,0,0,0-5.58-1.08h-8.26Z"/><path class="cls-1" d="M294.18,65.83v40.23h17.94v3.23H290.77V65.83Z"/><path class="cls-1" d="M321.62,65.83v43.46h-3.41V65.83Zm-1.61,0h21.54v3.23H320Zm0,18h20.3v3.23H320Zm0,22.23h21.54v3.23H320Z"/><path class="cls-1" d="M347,65.83h26.26v3.23H361.85v40.23h-3.41V69.06H347Z"/><path class="cls-1" d="M375.38,78.71a21.44,21.44,0,0,1,4.54-7.08A20.66,20.66,0,0,1,386.78,67,22.83,22.83,0,0,1,404,67a20.66,20.66,0,0,1,6.86,4.68,21.44,21.44,0,0,1,4.54,7.08,25.1,25.1,0,0,1,0,17.69,21.44,21.44,0,0,1-4.54,7.08,20.69,20.69,0,0,1-6.86,4.69,23,23,0,0,1-17.19,0,20.69,20.69,0,0,1-6.86-4.69,21.44,21.44,0,0,1-4.54-7.08,25.1,25.1,0,0,1,0-17.69Zm3.33,16.39a18.1,18.1,0,0,0,3.75,6,16.93,16.93,0,0,0,5.71,3.94,19.24,19.24,0,0,0,14.41,0,16.62,16.62,0,0,0,5.68-3.94,18.35,18.35,0,0,0,3.72-6A21.91,21.91,0,0,0,412,80a18.46,18.46,0,0,0-3.72-6,16.76,16.76,0,0,0-5.68-3.94,19.24,19.24,0,0,0-14.41,0A17.08,17.08,0,0,0,382.46,74a18.2,18.2,0,0,0-3.75,6,21.91,21.91,0,0,0,0,15.09Z"/></g></g></svg>