<svg xmlns="http://www.w3.org/2000/svg" viewBox="0 0 44.95 45.31"><defs><style>.cls-1{fill:#fff;}</style></defs><g id="Capa_2" data-name="Capa 2"><g id="Capa_1-2" data-name="Capa 1"><path class="cls-1" d="M0,45.31l.8-2.39c.29-.87.59-1.75.89-2.63l1.68-5c.18-.54.37-1.07.54-1.62a.52.52,0,0,0,0-.37A21.58,21.58,0,0,1,1.16,26,21.38,21.38,0,0,1,.81,21.5,22,22,0,0,1,6.57,7.19,21.91,21.91,0,0,1,18.35.47,22.36,22.36,0,0,1,24,0,22,22,0,0,1,37.19,5.27a22.18,22.18,0,0,1,7,10.94,22.82,22.82,0,0,1,.71,4,22.52,22.52,0,0,1-.18,5.19,22,22,0,0,1-1.39,5,22.19,22.19,0,0,1-2.91,5,21.59,21.59,0,0,1-3.19,3.36,21,21,0,0,1-3.13,2.24,22.21,22.21,0,0,1-5.53,2.32,21.88,21.88,0,0,1-7,.69,21.42,21.42,0,0,1-7.43-1.76c-.6-.27-1.17-.58-1.77-.85a.53.53,0,0,0-.35,0c-2.27.71-4.54,1.44-6.8,2.16Zm5.68-5.62.35-.1,2.4-.76,4-1.31a.58.58,0,0,1,.54.07c.42.27.85.53,1.3.76a18.6,18.6,0,0,0,5.83,1.92,18,18,0,0,0,5.68,0,17.85,17.85,0,0,0,5.88-2,18.22,18.22,0,0,0,4.89-3.88,18.39,18.39,0,0,0,4.65-10.9,18.38,18.38,0,0,0-.13-3.92,18.12,18.12,0,0,0-1.62-5.37,18.59,18.59,0,0,0-9.33-9,18.61,18.61,0,0,0-7.09-1.49A18.41,18.41,0,0,0,4.51,21,18.58,18.58,0,0,0,4.9,26a18,18,0,0,0,2.91,6.6.56.56,0,0,1,.07.57l-1.5,4.41C6.15,38.27,5.93,39,5.68,39.69Z"/><path class="cls-1" d="M11.85,17.06a6.54,6.54,0,0,1,2-5,2.31,2.31,0,0,1,1.47-.79,7.4,7.4,0,0,1,.81,0,2.92,2.92,0,0,0,.51,0,1,1,0,0,1,1.11.78c.2.47.36,1,.54,1.45.38,1,.76,2,1.15,3.05a1.14,1.14,0,0,1-.05,1,8,8,0,0,1-1.48,1.84c-.47.48-.49.72-.16,1.31a17.46,17.46,0,0,0,2.55,3.49,14.73,14.73,0,0,0,3.78,2.83l1.12.56a.82.82,0,0,0,1.14-.21c.61-.66,1.21-1.34,1.78-2,.42-.5.68-.61,1.28-.32.8.39,1.59.8,2.38,1.22s1.43.76,2.14,1.15a.73.73,0,0,1,.42.77,6.15,6.15,0,0,1-.51,2.24A3.57,3.57,0,0,1,32.42,32a6.57,6.57,0,0,1-2.23,1,6,6,0,0,1-3.31-.21,38.31,38.31,0,0,1-4.54-1.87A15.61,15.61,0,0,1,19,28.57a27.63,27.63,0,0,1-5.12-6.18,13.27,13.27,0,0,1-1.77-3.77C12,18,11.9,17.38,11.85,17.06Z"/></g></g></svg>