<svg xmlns="http://www.w3.org/2000/svg" viewBox="0 0 608.96 165.18"><defs><style>.cls-1{fill:#fff;}</style></defs><g id="Capa_2" data-name="Capa 2"><g id="Capa_1-2" data-name="Capa 1"><path class="cls-1" d="M6.92,37.93A37.39,37.39,0,0,1,15.4,25.59a39.52,39.52,0,0,1,12.72-8.15,41.59,41.59,0,0,1,15.77-3,41.22,41.22,0,0,1,15.72,3,38,38,0,0,1,12.56,8.21A36.84,36.84,0,0,1,80.38,38a41,41,0,0,1,2.89,15.66,42.78,42.78,0,0,1-2.84,15.73,36.19,36.19,0,0,1-8.16,12.55,37.65,37.65,0,0,1-12.5,8.26,41.36,41.36,0,0,1-15.88,3,42.25,42.25,0,0,1-16-3,38.7,38.7,0,0,1-12.72-8.26,37,37,0,0,1-8.37-12.5A41.28,41.28,0,0,1,3.86,53.65,39.5,39.5,0,0,1,6.92,37.93ZM22.05,64.06a24.11,24.11,0,0,0,5.21,8.11A22.92,22.92,0,0,0,35,77.37a25,25,0,0,0,9.6,1.82,25.72,25.72,0,0,0,9.5-1.71A22.37,22.37,0,0,0,61.7,72.6a21,21,0,0,0,4.94-7.68,27.28,27.28,0,0,0,1.72-9.76A29.83,29.83,0,0,0,66.64,45a24.9,24.9,0,0,0-4.94-8.37A22.19,22.19,0,0,0,54,31.07a25,25,0,0,0-10.2-2,24.14,24.14,0,0,0-9.39,1.82A22.52,22.52,0,0,0,26.88,36,23.29,23.29,0,0,0,22,43.84a26.67,26.67,0,0,0-1.78,9.81A27.91,27.91,0,0,0,22.05,64.06Zm33.64-5,35.09,33H73.61L39,59Z" transform="translate(-2.41 -11.59)"/><path class="cls-1" d="M113.21,16.1V65.67a17,17,0,0,0,1.5,7.35A11.18,11.18,0,0,0,119.22,78a16.48,16.48,0,0,0,14.86,0A11.25,11.25,0,0,0,138.54,73a17,17,0,0,0,1.5-7.35V16.1h15.45V66.53a30,30,0,0,1-2.14,11.81,23.2,23.2,0,0,1-6.07,8.47A26.65,26.65,0,0,1,138.11,92a38.15,38.15,0,0,1-23,0,25.44,25.44,0,0,1-9.06-5.21,24.15,24.15,0,0,1-6-8.47,29.32,29.32,0,0,1-2.2-11.81V16.1Z" transform="translate(-2.41 -11.59)"/><path class="cls-1" d="M190.05,66.42l.32,3.44L180.6,91.21H163.11l38.1-79.62,38.2,79.62h-17.6l-9.44-20.6.21-4L201.21,40.56ZM183.39,62h36.17l1.71,12.35h-39.7Z" transform="translate(-2.41 -11.59)"/><path class="cls-1" d="M263,16.1V77.59h30V91.21h-45.5V16.1Z" transform="translate(-2.41 -11.59)"/><path class="cls-1" d="M317.32,16.1V91.21H301.65V16.1Z" transform="translate(-2.41 -11.59)"/><path class="cls-1" d="M349.51,16.1V91.21h-16V16.1Zm-6.12,75.11V77.05h15.24a31.92,31.92,0,0,0,9.23-1.29,20.88,20.88,0,0,0,7.67-4.18,19.5,19.5,0,0,0,5.26-7.35,27.18,27.18,0,0,0,1.88-10.58A27.57,27.57,0,0,0,380.79,43a18.89,18.89,0,0,0-5.26-7.35,21.37,21.37,0,0,0-7.67-4.13,31.92,31.92,0,0,0-9.23-1.29H343.39V16.1h15.78a47,47,0,0,1,16.09,2.63,35.24,35.24,0,0,1,12.51,7.56,33.18,33.18,0,0,1,8,11.86,41.11,41.11,0,0,1,2.79,15.5,41.13,41.13,0,0,1-2.79,15.51,33.18,33.18,0,0,1-8,11.86,35.24,35.24,0,0,1-12.51,7.56,47,47,0,0,1-16.09,2.63Z" transform="translate(-2.41 -11.59)"/><path class="cls-1" d="M426.13,66.42l.32,3.44-9.76,21.35h-17.5l38.1-79.62,38.2,79.62h-17.6l-9.44-20.6.22-4L437.29,40.56ZM419.48,62h36.16l1.72,12.35H417.65Z" transform="translate(-2.41 -11.59)"/><path class="cls-1" d="M499.64,16.1V91.21h-16V16.1Zm-6.12,75.11V77.05h15.24A31.92,31.92,0,0,0,518,75.76a20.88,20.88,0,0,0,7.67-4.18,19.61,19.61,0,0,0,5.26-7.35,27.18,27.18,0,0,0,1.88-10.58A27.57,27.57,0,0,0,530.92,43a19,19,0,0,0-5.26-7.35A21.37,21.37,0,0,0,518,31.55a31.92,31.92,0,0,0-9.23-1.29H493.52V16.1H509.3a47,47,0,0,1,16.09,2.63,35.2,35.2,0,0,1,12.5,7.56,33.21,33.21,0,0,1,8,11.86,41.11,41.11,0,0,1,2.79,15.5,41.13,41.13,0,0,1-2.79,15.51,33.21,33.21,0,0,1-8,11.86,35.2,35.2,0,0,1-12.5,7.56,47,47,0,0,1-16.09,2.63Z" transform="translate(-2.41 -11.59)"/><path class="cls-1" d="M575.61,16.1V91.21h-15V16.1Zm-5.15,0h38V29.19h-38Zm0,28.76H606.3V57.73H570.46Zm0,33.26h38V91.21h-38Z" transform="translate(-2.41 -11.59)"/><path class="cls-1" d="M14.07,142.06a13.86,13.86,0,0,0,3.32,4.79,14.56,14.56,0,0,0,4.79,3,15.62,15.62,0,0,0,5.69,1,19.22,19.22,0,0,0,6-.87,18.21,18.21,0,0,0,4.72-2.32,18.57,18.57,0,0,0,3.62-3.25v10.86a22.23,22.23,0,0,1-6.2,3.55,24.45,24.45,0,0,1-8.54,1.27,27.29,27.29,0,0,1-10-1.77,24,24,0,0,1-7.94-5,22.38,22.38,0,0,1-5.26-7.67,27.27,27.27,0,0,1,0-19.9,22.79,22.79,0,0,1,5.26-7.7,23.78,23.78,0,0,1,7.94-5,27.29,27.29,0,0,1,10-1.77A25,25,0,0,1,36,112.55a20.11,20.11,0,0,1,6.2,3.65v10.85a22.46,22.46,0,0,0-3.62-3.25,16.53,16.53,0,0,0-4.72-2.34,19.86,19.86,0,0,0-6-.84,15.62,15.62,0,0,0-5.69,1,14.56,14.56,0,0,0-4.79,3,13.86,13.86,0,0,0-3.32,4.79,17,17,0,0,0,0,12.59Z" transform="translate(-2.41 -11.59)"/><path class="cls-1" d="M50.85,126a23,23,0,0,1,5.26-7.71A25.09,25.09,0,0,1,64,113.15a25.85,25.85,0,0,1,27.54,5.09A21.93,21.93,0,0,1,96.75,126a26,26,0,0,1,1.81,9.81,26.34,26.34,0,0,1-1.81,9.82,23,23,0,0,1-5.16,7.84,24,24,0,0,1-7.87,5.16,26,26,0,0,1-9.89,1.84,26.24,26.24,0,0,1-10-1.84,23.31,23.31,0,0,1-13-13A25.63,25.63,0,0,1,49,135.76,25,25,0,0,1,50.85,126Zm9.38,15.94a14.45,14.45,0,0,0,3,4.9A13.63,13.63,0,0,0,67.87,150a15.11,15.11,0,0,0,6,1.14A14.72,14.72,0,0,0,79.66,150a13.77,13.77,0,0,0,4.63-3.18,14.54,14.54,0,0,0,3-4.86,17.09,17.09,0,0,0,1.07-6.17,18.33,18.33,0,0,0-1-6.13,13.6,13.6,0,0,0-3-4.89,13.9,13.9,0,0,0-4.59-3.18,16.25,16.25,0,0,0-12,0,13.63,13.63,0,0,0-4.62,3.18,14.46,14.46,0,0,0-3,4.86,18.18,18.18,0,0,0,0,12.29Z" transform="translate(-2.41 -11.59)"/><path class="cls-1" d="M113.36,159.21h-10l7-49.24L130,140.19,149.54,110l7.11,49.24H146.53L143.58,133,130,154.86,116.44,133Z" transform="translate(-2.41 -11.59)"/><path class="cls-1" d="M193.76,112.31v46.9h-9.65v-46.9Zm-3.75,0h9.31a22.11,22.11,0,0,1,9.48,1.85,13.47,13.47,0,0,1,6,5.22,16.53,16.53,0,0,1,0,15.91,13.06,13.06,0,0,1-6,5.13,22.91,22.91,0,0,1-9.48,1.78H190V134h9.31a11.68,11.68,0,0,0,4.36-.74,5.82,5.82,0,0,0,2.85-2.21,6.74,6.74,0,0,0,1-3.75,6.82,6.82,0,0,0-1-3.72,6.23,6.23,0,0,0-2.85-2.31,11.09,11.09,0,0,0-4.36-.8H190Z" transform="translate(-2.41 -11.59)"/><path class="cls-1" d="M234,112.31v46.9h-9.65v-46.9Zm-3.75,0h9.92a21.57,21.57,0,0,1,9.48,1.91,13.85,13.85,0,0,1,8.14,13.1,14.31,14.31,0,0,1-2.11,7.77,14.12,14.12,0,0,1-6,5.23,21.86,21.86,0,0,1-9.48,1.88h-9.92v-7.64h9.31a10.6,10.6,0,0,0,4.36-.84,6.3,6.3,0,0,0,2.85-2.38,7,7,0,0,0,1-3.75,7.17,7.17,0,0,0-1-3.79,6,6,0,0,0-2.85-2.37,10.94,10.94,0,0,0-4.36-.81h-9.31Zm15.07,25.06,15.28,21.84H249L235.1,137.37Z" transform="translate(-2.41 -11.59)"/><path class="cls-1" d="M275.23,112.31v46.9h-9.38v-46.9Zm-3.21,0h23.71v8.18H272Zm0,18H294.4v8H272ZM272,151h23.71v8.17H272Z" transform="translate(-2.41 -11.59)"/><path class="cls-1" d="M314.16,142.06a13.86,13.86,0,0,0,3.32,4.79,14.56,14.56,0,0,0,4.79,3,15.62,15.62,0,0,0,5.69,1,19.22,19.22,0,0,0,6-.87,18.21,18.21,0,0,0,4.72-2.32,18.86,18.86,0,0,0,3.62-3.25v10.86a22.23,22.23,0,0,1-6.2,3.55,24.45,24.45,0,0,1-8.54,1.27,27.29,27.29,0,0,1-10-1.77,24,24,0,0,1-7.94-5,22.38,22.38,0,0,1-5.26-7.67,27.27,27.27,0,0,1,0-19.9,22.79,22.79,0,0,1,5.26-7.7,23.78,23.78,0,0,1,7.94-5,27.29,27.29,0,0,1,10-1.77,25,25,0,0,1,8.54,1.24,20.11,20.11,0,0,1,6.2,3.65v10.85a22.89,22.89,0,0,0-3.62-3.25,16.53,16.53,0,0,0-4.72-2.34,19.86,19.86,0,0,0-6-.84,15.62,15.62,0,0,0-5.69,1,14.56,14.56,0,0,0-4.79,3,13.86,13.86,0,0,0-3.32,4.79,17,17,0,0,0,0,12.59ZM330.91,156l-5.29,7.9a2.35,2.35,0,0,1,.87-.13h.94a5.86,5.86,0,0,1,2.67.67,5.69,5.69,0,0,1,2.22,2,6.8,6.8,0,0,1-.34,7.2,7.53,7.53,0,0,1-3.11,2.34,10,10,0,0,1-3.92.81,17.27,17.27,0,0,1-4.49-.54,13.76,13.76,0,0,1-4.16-2l2.82-4a7.84,7.84,0,0,0,2.51,1.24,8.65,8.65,0,0,0,2.38.37,6.09,6.09,0,0,0,1.94-.27,2.49,2.49,0,0,0,1.21-.77,2,2,0,0,0,.4-1.31,2,2,0,0,0-.5-1.44,2.93,2.93,0,0,0-1.41-.7,9.35,9.35,0,0,0-2-.2,18.83,18.83,0,0,0-2,.23,10,10,0,0,0-3,1l5.83-12.6Z" transform="translate(-2.41 -11.59)"/><path class="cls-1" d="M350.94,126a22.83,22.83,0,0,1,5.26-7.71,25.09,25.09,0,0,1,7.87-5.09,27.1,27.1,0,0,1,19.63,0,25.39,25.39,0,0,1,7.91,5.09,21.93,21.93,0,0,1,5.23,7.71,26,26,0,0,1,1.81,9.81,26.34,26.34,0,0,1-1.81,9.82,23,23,0,0,1-5.16,7.84,24,24,0,0,1-7.87,5.16,26,26,0,0,1-9.89,1.84,26.24,26.24,0,0,1-10-1.84,23.31,23.31,0,0,1-13-13,25.63,25.63,0,0,1-1.84-9.85A25,25,0,0,1,350.94,126Zm9.38,15.94a14.45,14.45,0,0,0,3,4.9A13.63,13.63,0,0,0,368,150a15.08,15.08,0,0,0,6,1.14,14.75,14.75,0,0,0,5.83-1.14,13.63,13.63,0,0,0,4.62-3.18,14.56,14.56,0,0,0,3-4.86,17.3,17.3,0,0,0,1.07-6.17,18.33,18.33,0,0,0-1-6.13,13.74,13.74,0,0,0-2.95-4.89,13.9,13.9,0,0,0-4.59-3.18,16.25,16.25,0,0,0-12,0,13.63,13.63,0,0,0-4.62,3.18,14.46,14.46,0,0,0-3,4.86,18.18,18.18,0,0,0,0,12.29Z" transform="translate(-2.41 -11.59)"/><path class="cls-1" d="M418.74,165.88a8,8,0,0,0,3,.57,4.57,4.57,0,0,0,3-1.21q1.44-1.2,1.44-4.35V112.31h10.19V162.9a12.91,12.91,0,0,1-1.08,5.56,9.42,9.42,0,0,1-3,3.68,13.07,13.07,0,0,1-4.42,2.08,21,21,0,0,1-5.46.67,17.4,17.4,0,0,1-4.56-.6,22,22,0,0,1-3.92-1.44,14.93,14.93,0,0,1-2.78-1.71l5.16-6.83A7.23,7.23,0,0,0,418.74,165.88Z" transform="translate(-2.41 -11.59)"/><path class="cls-1" d="M455.73,112.31v31a10.54,10.54,0,0,0,.94,4.59,6.93,6.93,0,0,0,2.81,3.08,10.34,10.34,0,0,0,9.28,0,7,7,0,0,0,2.78-3.08,10.54,10.54,0,0,0,.94-4.59v-31h9.65V143.8a18.72,18.72,0,0,1-1.34,7.37,14.57,14.57,0,0,1-3.79,5.3,16.66,16.66,0,0,1-5.73,3.25,23.92,23.92,0,0,1-14.34,0,16.08,16.08,0,0,1-5.66-3.25,15.35,15.35,0,0,1-3.75-5.3,18.19,18.19,0,0,1-1.37-7.37V112.31Z" transform="translate(-2.41 -11.59)"/><path class="cls-1" d="M499.31,148a14.1,14.1,0,0,0,3.92,3,10,10,0,0,0,4.62,1.1,7.92,7.92,0,0,0,3.39-.67,5.07,5.07,0,0,0,3-4.82,5.43,5.43,0,0,0-1.1-3.52,9.34,9.34,0,0,0-3.25-2.41q-2.15-1-5.29-2.25c-1.16-.44-2.46-1-3.89-1.67a19.06,19.06,0,0,1-4.12-2.65,13,13,0,0,1-3.22-4,12.34,12.34,0,0,1-1.23-5.77,12,12,0,0,1,2-6.9,13.08,13.08,0,0,1,5.52-4.55,18.78,18.78,0,0,1,7.94-1.61,18,18,0,0,1,7.71,1.54,18.32,18.32,0,0,1,8.84,8.58l-7.5,4.28a17.39,17.39,0,0,0-2.31-3,10.08,10.08,0,0,0-3-2.18,8.31,8.31,0,0,0-3.68-.81,7.6,7.6,0,0,0-3.18.57,4.35,4.35,0,0,0-1.88,1.54A4,4,0,0,0,502,124a4.21,4.21,0,0,0,.71,2.35,7.51,7.51,0,0,0,2,2A17.27,17.27,0,0,0,508,130q2,.83,4.59,1.7a35.67,35.67,0,0,1,4.43,2.08,17.13,17.13,0,0,1,3.81,2.92,13.65,13.65,0,0,1,2.72,4,13,13,0,0,1,1,5.33,13.14,13.14,0,0,1-1.38,6.1,12.93,12.93,0,0,1-3.75,4.49,18.28,18.28,0,0,1-5.33,2.78,19.22,19.22,0,0,1-6.09,1,20.17,20.17,0,0,1-8.08-1.61,21.06,21.06,0,0,1-6.5-4.35,20.85,20.85,0,0,1-4.32-6.1l7-5A22.19,22.19,0,0,0,499.31,148Z" transform="translate(-2.41 -11.59)"/><path class="cls-1" d="M527.48,112.31h34.91V121H549.73v38.19h-9.58V121H527.48Z" transform="translate(-2.41 -11.59)"/><path class="cls-1" d="M563.66,126a23,23,0,0,1,5.26-7.71,25,25,0,0,1,7.88-5.09,27.1,27.1,0,0,1,19.63,0,25.34,25.34,0,0,1,7.9,5.09,21.93,21.93,0,0,1,5.23,7.71,25.76,25.76,0,0,1,1.81,9.81,26.15,26.15,0,0,1-1.81,9.82,23,23,0,0,1-5.16,7.84,23.9,23.9,0,0,1-7.87,5.16,25.93,25.93,0,0,1-9.88,1.84,26.26,26.26,0,0,1-10-1.84,23.31,23.31,0,0,1-13-13,25.63,25.63,0,0,1-1.84-9.85A25,25,0,0,1,563.66,126ZM573,141.89a14.45,14.45,0,0,0,3,4.9,13.73,13.73,0,0,0,4.62,3.18,15.13,15.13,0,0,0,6,1.14,14.7,14.7,0,0,0,5.82-1.14,13.77,13.77,0,0,0,4.63-3.18,14.54,14.54,0,0,0,3-4.86,17.09,17.09,0,0,0,1.07-6.17,18.33,18.33,0,0,0-1-6.13,13.48,13.48,0,0,0-7.54-8.07,16.25,16.25,0,0,0-12,0,13.73,13.73,0,0,0-4.62,3.18,14.46,14.46,0,0,0-3,4.86,18.18,18.18,0,0,0,0,12.29Z" transform="translate(-2.41 -11.59)"/></g></g></svg>