<svg xmlns="http://www.w3.org/2000/svg" viewBox="0 0 67.81 43.4"><defs><style>.cls-1{fill:#33dfa0;}</style></defs><g id="Capa_2" data-name="Capa 2"><g id="Capa_1-2" data-name="Capa 1"><path class="cls-1" d="M0,6.66H11.66a2.09,2.09,0,0,0,1.21-.35,38.29,38.29,0,0,1,42,0,2.27,2.27,0,0,0,1.34.4H67.64c0,.35-.26.49-.43.67-1.46,1.6-2.91,3.21-4.41,4.77-.42.45-.44.68,0,1.13a16.88,16.88,0,0,1-5.6,27.67c-6.18,2.48-12,1.47-17.2-2.69-.59-.47-.84-.42-1.3.11-1.43,1.62-2.93,3.19-4.37,4.8-.35.39-.53.36-.87,0-1.48-1.65-3-3.26-4.47-4.91-.39-.43-.61-.47-1.08-.08A16.89,16.89,0,0,1,.33,28.34,16.29,16.29,0,0,1,5,13.29c.51-.53.44-.78,0-1.25C3.48,10.5,2.05,8.91.61,7.33.44,7.15.29,7,0,6.66ZM5.51,25.2A11.47,11.47,0,1,0,17,13.77,11.46,11.46,0,0,0,5.51,25.2Zm56.8,0A11.47,11.47,0,1,0,50.84,36.7,11.43,11.43,0,0,0,62.31,25.24ZM21.23,8.06c7,3.08,11.61,7.83,12.68,15.47C35,15.89,39.66,11.12,46.59,8.06A33.44,33.44,0,0,0,21.23,8.06Z"/><path class="cls-1" d="M16.93,31.23a6,6,0,1,1,6.05-6A6,6,0,0,1,16.93,31.23Z"/><path class="cls-1" d="M50.88,31.23a6,6,0,1,1,6-6A6,6,0,0,1,50.88,31.23Z"/></g></g></svg>